<?xml version="1.0" encoding="UTF-8" standalone="no"?>
<!-- Created with Inkscape (http://www.inkscape.org/) -->

<svg
   xmlns:dc="http://purl.org/dc/elements/1.1/"
   xmlns:cc="http://creativecommons.org/ns#"
   xmlns:rdf="http://www.w3.org/1999/02/22-rdf-syntax-ns#"
   xmlns:svg="http://www.w3.org/2000/svg"
   xmlns="http://www.w3.org/2000/svg"
   xmlns:xlink="http://www.w3.org/1999/xlink"
   xmlns:sodipodi="http://sodipodi.sourceforge.net/DTD/sodipodi-0.dtd"
   xmlns:inkscape="http://www.inkscape.org/namespaces/inkscape"
   width="2844.5459"
   height="2844.7114"
   id="svg4373"
   version="1.1"
   inkscape:version="0.91 r13725"
   sodipodi:docname="circular.svg">
  <defs
     id="defs4375">
    <radialGradient
       inkscape:collect="always"
       xlink:href="#linearGradient5918-0"
       id="radialGradient3230"
       gradientUnits="userSpaceOnUse"
       gradientTransform="translate(-20,0)"
       cx="405.73434"
       cy="269.48434"
       fx="405.73434"
       fy="269.48434"
       r="1417.3282" />
    <linearGradient
       id="linearGradient5918-0">
      <stop
         style="stop-color:#ffdbaa;stop-opacity:1;"
         offset="0"
         id="stop5920-24" />
      <stop
         id="stop4001"
         offset="0.25"
         style="stop-color:#ffdbaa;stop-opacity:1;" />
      <stop
         style="stop-color:#d4a76a;stop-opacity:1;"
         offset="1"
         id="stop5922-83" />
    </linearGradient>
    <radialGradient
       inkscape:collect="always"
       xlink:href="#linearGradient5926-9"
       id="radialGradient3227"
       gradientUnits="userSpaceOnUse"
       gradientTransform="translate(-20,0)"
       cx="405.73434"
       cy="269.48434"
       fx="405.73434"
       fy="269.48434"
       r="1417.3282" />
    <linearGradient
       id="linearGradient5926-9">
      <stop
         style="stop-color:#4b8dc4;stop-opacity:1;"
         offset="0"
         id="stop5928-0" />
      <stop
         id="stop4003"
         offset="0.25"
         style="stop-color:#4b8dc4;stop-opacity:1;" />
      <stop
         style="stop-color:#3372a6;stop-opacity:1;"
         offset="1"
         id="stop5930-52" />
    </linearGradient>
    <radialGradient
       inkscape:collect="always"
       xlink:href="#linearGradient5369-7"
       id="radialGradient6309-2"
       cx="-1309.2073"
       cy="-313.40555"
       fx="-1309.2073"
       fy="-313.40555"
       r="269.17609"
       gradientUnits="userSpaceOnUse" />
    <linearGradient
       id="linearGradient5369-7">
      <stop
         style="stop-color:#929292;stop-opacity:1;"
         offset="0"
         id="stop5371-3" />
      <stop
         style="stop-color:#6d6d6d;stop-opacity:1;"
         offset="1"
         id="stop5373-79" />
    </linearGradient>
    <inkscape:path-effect
       is_visible="true"
       id="path-effect6667-0"
       effect="spiro" />
    <inkscape:path-effect
       is_visible="true"
       id="path-effect6652-2"
       effect="spiro" />
    <inkscape:path-effect
       is_visible="true"
       id="path-effect6637-3"
       effect="spiro" />
    <inkscape:path-effect
       is_visible="true"
       id="path-effect6622-99"
       effect="spiro" />
    <inkscape:path-effect
       is_visible="true"
       id="path-effect6697-7"
       effect="spiro" />
    <inkscape:path-effect
       is_visible="true"
       id="path-effect6682-0"
       effect="spiro" />
    <inkscape:path-effect
       effect="spiro"
       id="path-effect4316-39"
       is_visible="true" />
    <inkscape:path-effect
       effect="spiro"
       id="path-effect4454-8"
       is_visible="true" />
    <inkscape:path-effect
       is_visible="true"
       id="path-effect6573-6"
       effect="spiro" />
    <inkscape:path-effect
       is_visible="true"
       id="path-effect6558-5"
       effect="spiro" />
    <inkscape:path-effect
       is_visible="true"
       id="path-effect6543-76"
       effect="spiro" />
    <inkscape:path-effect
       is_visible="true"
       id="path-effect6528-2"
       effect="spiro" />
    <inkscape:path-effect
       effect="spiro"
       id="path-effect6662-7"
       is_visible="true" />
    <inkscape:path-effect
       effect="spiro"
       id="path-effect6657-0"
       is_visible="true" />
    <inkscape:path-effect
       effect="spiro"
       id="path-effect6632-3"
       is_visible="true" />
    <inkscape:path-effect
       effect="spiro"
       id="path-effect6627-9"
       is_visible="true" />
    <inkscape:path-effect
       effect="spiro"
       id="path-effect6692-9"
       is_visible="true" />
    <inkscape:path-effect
       effect="spiro"
       id="path-effect6687-9"
       is_visible="true" />
    <inkscape:path-effect
       is_visible="true"
       id="path-effect4320-1"
       effect="spiro" />
    <inkscape:path-effect
       is_visible="true"
       id="path-effect4457-7"
       effect="spiro" />
    <inkscape:path-effect
       effect="spiro"
       id="path-effect6568-2"
       is_visible="true" />
    <inkscape:path-effect
       effect="spiro"
       id="path-effect6563-3"
       is_visible="true" />
    <inkscape:path-effect
       effect="spiro"
       id="path-effect6538-6"
       is_visible="true" />
    <inkscape:path-effect
       effect="spiro"
       id="path-effect6533-5"
       is_visible="true" />
  </defs>
  <sodipodi:namedview
     id="base"
     pagecolor="#ffffff"
     bordercolor="#666666"
     borderopacity="1.0"
     inkscape:pageopacity="0.0"
     inkscape:pageshadow="2"
     inkscape:zoom="0.35"
     inkscape:cx="1422.2949"
     inkscape:cy="1423.6046"
     inkscape:document-units="px"
     inkscape:current-layer="layer1"
     showgrid="false"
     fit-margin-top="0"
     fit-margin-left="0"
     fit-margin-right="0"
     fit-margin-bottom="0"
     inkscape:window-width="630"
     inkscape:window-height="415"
     inkscape:window-x="24"
     inkscape:window-y="20"
     inkscape:window-maximized="0" />
  <metadata
     id="metadata4378">
    <rdf:RDF>
      <cc:Work
         rdf:about="">
        <dc:format>image/svg+xml</dc:format>
        <dc:type
           rdf:resource="http://purl.org/dc/dcmitype/StillImage" />
        <dc:title></dc:title>
        <dc:creator>
          <cc:Agent>
            <dc:title>Matt Chisholm</dc:title>
          </cc:Agent>
        </dc:creator>
        <dc:source>https://glyphobet.net/three-player-chess/</dc:source>
        <cc:license
           rdf:resource="http://creativecommons.org/licenses/by-nc-sa/3.0/" />
      </cc:Work>
      <cc:License
         rdf:about="http://creativecommons.org/licenses/by-nc-sa/3.0/">
        <cc:permits
           rdf:resource="http://creativecommons.org/ns#Reproduction" />
        <cc:permits
           rdf:resource="http://creativecommons.org/ns#Distribution" />
        <cc:requires
           rdf:resource="http://creativecommons.org/ns#Notice" />
        <cc:requires
           rdf:resource="http://creativecommons.org/ns#Attribution" />
        <cc:prohibits
           rdf:resource="http://creativecommons.org/ns#CommercialUse" />
        <cc:permits
           rdf:resource="http://creativecommons.org/ns#DerivativeWorks" />
        <cc:requires
           rdf:resource="http://creativecommons.org/ns#ShareAlike" />
      </cc:License>
    </rdf:RDF>
  </metadata>
  <g
     inkscape:label="Layer 1"
     inkscape:groupmode="layer"
     id="layer1"
     transform="translate(1047.295,888.74453)">
    <g
       transform="matrix(-1,0,0,1,760.73432,264.13046)"
       id="g4005"
       inkscape:export-filename="/Users/matt/Desktop/Chess Boards/redbubble/circular.png"
       inkscape:export-xdpi="149.97"
       inkscape:export-ydpi="149.97">
      <!-- <path
         sodipodi:type="arc"
         style="fill:none;stroke:#000000;stroke-width:1.88969088;stroke-miterlimit:4;stroke-opacity:1;stroke-dasharray:none"
         id="path6311"
         sodipodi:cx="-1309.2073"
         sodipodi:cy="-313.40555"
         sodipodi:rx="267.8302"
         sodipodi:ry="267.8302"
         d="m -1041.3771,-313.40555 a 267.8302,267.8302 0 0 1 -267.8302,267.830202 267.8302,267.8302 0 0 1 -267.8302,-267.830202 267.8302,267.8302 0 0 1 267.8302,-267.8302 267.8302,267.8302 0 0 1 267.8302,267.8302 z"
         transform="matrix(5.2918709,0,0,5.2918709,7313.8902,1927.9861)" /> -->
      <path
         sodipodi:nodetypes="cccccccccccccccccccccccccccccccccccccccccccccccccccccccccccccccccccccccccccccccccccccccccccccccccccccccccccccccccccccccccccccccccccccccccccccccccccccccccccccccccccccccccccccccccccccccccccccccccccccccccccccccccccccccccccccccccccccccccccccccccccccccccccccccccccccccccccccccccccccccccccccccccccccccccccccccccccccccccccccccccccccccccccccccccccccccccccccccccccccccccccccccccccccccccccccccccccccccccccccccccccccccccccccccccccccccccccccccccccccccccccccccccccccccccccccccccccccccccccccccccccccc"
         inkscape:connector-curvature="0"
         id="path4329"
         d="m 385.75,-1147.8438 c -126.89534,0 -249.90398,16.6882 -366.9375,47.9688 15.29333,57.0621 30.58365,114.1249 45.875,171.1875 102.40146,-27.3688 210.03247,-42 321.0625,-42 z m 0,177.1563 0,177.1875 c 95.17486,0 187.40964,12.50679 275.1875,35.96875 l 45.84375,-171.15625 c -102.40146,-27.36882 -210.00122,-42 -321.03125,-42 z m 321.03125,42 c 105.97043,28.3227 206.34644,70.31794 299.12495,124 l 88.25,-152.84375 0.375,-0.625 c -106.3633,-61.54335 -221.4738,-109.62735 -342.99995,-141.99995 0.29593,0.3713 0.61046,0.72 0.90625,1.0937 z m 299.12495,124 -88.5937,153.4375 c 80.6538,46.66617 154.6061,103.63735 220.0625,169.09375 l 125.2812,-125.28125 c -76.3658,-76.36581 -162.6538,-142.80613 -256.75,-197.25 z m 256.75,197.25 c 76.366,76.36581 142.8062,162.65388 197.25,256.75 l 152.8438,-88.25 0.625,-0.34375 c -62.2204,-107.53864 -138.1639,-206.16108 -225.4375,-293.4375 l -0.3437,0.34375 z m 197.25,256.75 -153.4374,88.59375 c 46.0099,79.52021 82.0047,165.549571 106.2812,256.375 l 171.1562,-45.84375 c -28.3224,-105.97043 -70.3178,-206.34554 -124,-299.125 z m 124,299.125 c 27.3689,102.401457 42,210.00122 42,321.03125 l 176.6563,0 0.5,0 c 0,-126.89935 -16.6865,-249.870116 -47.9687,-366.90625 l -0.8126,0.21875 z m 42,321.03125 -177.1874,0 c 0,95.17483 -12.5068,187.44091 -35.9688,275.21875 l 171.1562,45.84375 c 27.3689,-102.40146 42,-210.03247 42,-321.0625 z m -42,321.0625 c -28.3224,105.97043 -70.3178,206.34554 -124,299.125 l 152.8438,88.25 0.5938,0.34375 c 61.3513,-106.0338 109.3808,-220.7345 141.75,-341.84375 l -0.8126,-0.21875 z m -124,299.125 -153.4374,-88.59375 c -46.6625,80.64735 -103.644,154.57786 -169.0938,220.0313 L 1012.125,895.84375 C 957.578,950.39074 895.93025,997.86156 828.71875,1036.75 l 88.59375,153.4375 c 80.6526,-46.6658 154.6069,-103.6069 220.0625,-169.0625 l 125.2812,125.25 c 76.3597,-76.3619 142.8099,-162.62908 197.25,-256.71875 z M 917.3125,1190.1875 c -79.52105,46.0111 -165.54842,82.0357 -256.375,106.3125 l 45.84375,171.1562 c 105.97043,-28.3224 206.34644,-70.3178 299.12495,-124 z m 88.5937,153.4687 88.25,152.8438 0.3438,0.625 c 107.5488,-62.2263 206.1558,-138.1843 293.4375,-225.4688 l -0.3437,-0.3437 -124.9376,-124.9063 c -76.3658,76.366 -162.6538,142.8062 -256.75,197.25 z m -299.12495,124 C 604.37979,1495.0258 496.78003,1509.625 385.75,1509.625 l 0,176.6875 0,0.5 c 126.89536,0 249.87292,-16.6883 366.90625,-47.9687 l -0.21875,-0.8126 z M 385.75,1509.625 l 0,-177.1562 c -95.16692,0 -187.41621,-12.5106 -275.1875,-35.9688 l -45.875,171.1562 c 102.40146,27.3689 210.03247,41.9688 321.0625,41.9688 z M 64.6875,1467.6562 c -105.970427,-28.3224 -206.34554,-70.3178 -299.125,-124 l -88.25,152.8438 -0.375,0.625 c 106.03682,61.3542 220.76156,109.3486 341.875,141.7188 l 0.21875,-0.8126 z m -299.125,-124 88.59375,-153.4687 c -80.65263,-46.6658 -154.60692,-103.6069 -220.0625,-169.0625 l -125.28125,125.2812 c 76.36581,76.366 162.65388,142.8062 256.75,197.25 z m -256.75,-197.25 c -76.36581,-76.3658 -142.80613,-162.65383 -197.25,-256.74995 l -152.84375,88.25 -0.625,0.375 c 62.21994,107.53285 138.16625,206.13435 225.4375,293.40625 l 0.375,-0.375 z m -197.25,-256.74995 153.46875,-88.59375 c -46.0111,-79.52104 -82.03565,-165.54844 -106.3125,-256.375 l -171.15625,45.84375 c 28.3227,105.97043 70.31794,206.34554 124,299.125 z m -124,-299.125 c -27.36882,-102.40146 -41.96875,-210.03247 -41.96875,-321.0625 l -176.68755,0 -0.5,0 c 0,126.89533 16.6883,249.90395 47.9688,366.9375 l 0.8125,-0.21875 z m -41.96875,-321.0625 177.15625,0 c 0,-95.17486 12.50679,-187.40964 35.96875,-275.1875 L -812.4375,-51.5625 c -27.36882,102.401457 -41.96875,210.00122 -41.96875,321.03125 z M -812.4375,-51.5625 c 28.3227,-105.97043 70.31794,-206.34554 124,-299.125 l -152.84375,-88.25 -0.625,-0.375 c -61.35429,106.03669 -109.34869,220.76167 -141.71875,341.875 l 0.8125,0.21875 z m 124,-299.125 153.46875,88.59375 c 46.66584,-80.65264 103.60692,-154.60691 169.0625,-220.0625 l -125.25,-125.28125 c 76.36193,-76.35921 162.62908,-142.80986 256.71875,-197.25 l -88.25,-152.84375 -0.34375,-0.625 c -107.53538,62.21863 -206.13252,138.16665 -293.40625,225.4375 l 0.34375,0.34375 124.90625,124.9375 c -76.36581,76.36581 -142.80613,162.65388 -197.25,256.75 z m 454,-454 88.59375,153.4375 c 79.518076,-46.00904 165.552267,-82.00473 256.375,-106.28125 L 64.6875,-928.6875 c -105.970427,28.3227 -206.34554,70.31794 -299.125,124 z m 344.96875,47.15625 45.875,171.1875 c 73.15059,-19.553 150.02851,-30 229.34375,-30 l 0,-177.15625 c -95.17746,0 -187.43873,12.50553 -275.21875,35.96875 z m 275.21875,141.1875 0,177.15625 c 63.4442,0 124.92365,8.3614 183.4375,24 l 45.875,-171.1875 c -73.14169,-19.5479 -150.008,-29.96875 -229.3125,-29.96875 z m 229.3125,29.96875 c 75.69585,20.23052 147.38307,50.24818 213.65625,88.59375 L 917.3125,-651.25 c -79.52021,-46.01027 -165.54957,-82.00471 -256.375,-106.28125 z m 213.65625,88.59375 -88.59375,153.46875 c 53.76509,31.10964 103.08401,69.05276 146.71875,112.6875 L 1012.125,-356.90625 c -54.547,-54.547 -116.19475,-101.98652 -183.40625,-140.875 z m 183.40625,140.875 c 54.547,54.547 101.9865,116.19474 140.875,183.40625 l 153.4688,-88.59375 c -46.6667,-80.65382 -103.6374,-154.6061 -169.0938,-220.0625 z M 1153,-173.5 999.5312,-84.90625 c 30.6791,53.02101 54.6899,110.377394 70.875,170.9375 l 171.1876,-45.875 C 1221.3632,-35.539617 1191.3456,-107.22681 1153,-173.5 z m 88.5938,213.65625 c 19.5478,73.14171 29.9687,150.00798 29.9687,229.3125 l 177.1563,0 c 0,-95.17486 -12.5068,-187.40964 -35.9688,-275.1875 z m 29.9687,229.3125 -177.1563,0 c 0,63.4442 -8.3614,124.9549 -24,183.46875 l 171.1563,45.875 c 19.553,-73.15058 30,-150.02851 30,-229.34375 z m -30,229.34375 C 1221.3321,574.49743 1191.3406,646.20423 1153,712.46875 l 153.4688,88.59375 c 46.0099,-79.5202 82.0047,-165.54959 106.2812,-256.375 z M 1153,712.46875 999.5312,623.875 c -31.105,53.75863 -69.05932,103.05665 -112.68745,146.6875 L 761.5625,645.3125 c -32.72534,32.72534 -69.70847,61.1993 -110.03125,84.53125 l 88.59375,153.4375 c 53.76509,-31.10964 103.08401,-69.05276 146.71875,-112.6875 l 125.28125,125.25 c 54.547,-54.54699 101.9865,-116.1635 140.875,-183.375 z m -412.875,170.8125 c -53.02101,30.6791 -110.37739,54.68952 -170.9375,70.875 l 45.875,171.15625 c 75.69372,-20.2305 147.38476,-50.2179 213.65625,-88.5625 z M 615.0625,1125.3125 c -73.14342,19.5489 -150.00592,30 -229.3125,30 l 0,177.1563 c 95.17486,0 187.40964,-12.5068 275.1875,-35.9688 z m -229.3125,30 0,-177.15625 c -63.4442,0 -124.9549,-8.3614 -183.46875,-24 l -45.875,171.15625 c 73.15001,19.5527 150.02922,30 229.34375,30 z m -229.34375,-30 C 80.72059,1105.0821 9.015101,1075.0909 -57.25,1036.75 l -88.59375,153.4375 c 79.52743,46.0148 165.571618,82.0356 256.40625,106.3125 z M -57.25,1036.75 31.375,883.28125 C -22.399163,852.16909 -71.73395,814.2348 -115.375,770.59375 l -125.25,125.25 c 54.547,54.54699 116.16349,102.01781 183.375,140.90625 z M -240.625,895.84375 c -54.547,-54.54699 -102.01777,-116.1635 -140.90625,-183.375 l -153.4375,88.59375 c 46.66584,80.65263 103.60692,154.60695 169.0625,220.0625 z M -381.53125,712.46875 -228.0625,623.875 c -30.6791,-53.02101 -54.68952,-110.37739 -70.875,-170.9375 l -171.15625,45.875 c 20.23044,75.68565 50.22161,147.39116 88.5625,213.65625 z m -88.5625,-213.65625 c -19.55267,-73.15 -30,-150.02922 -30,-229.34375 l -177.15625,0 c 0,95.17483 12.50679,187.44091 35.96875,275.21875 z m -30,-229.34375 177.15625,0 c 0,-63.4442 8.3614,-124.92365 24,-183.4375 l -171.15625,-45.875 c -19.54889,73.14344 -30,150.00589 -30,229.3125 z m 30,-229.3125 c 20.2305,-75.69374 50.21791,-147.38475 88.5625,-213.65625 l -153.4375,-88.59375 c -46.0111,79.52105 -82.03565,165.548419 -106.3125,256.375 z m 88.5625,-213.65625 153.46875,88.59375 c 31.10964,-53.76509 69.05276,-103.08401 112.6875,-146.71875 l -125.25,-125.28125 c -54.547,54.547 -102.01777,116.19474 -140.90625,183.40625 z M -240.625,-356.90625 c 54.547,-54.547 116.16349,-101.98652 183.375,-140.875 L -145.84375,-651.25 c -80.64735,46.66244 -154.57873,103.64394 -220.03125,169.09375 z m 183.375,-140.875 88.59375,153.46875 c 53.02101,-30.6791 110.37739,-54.68952 170.9375,-70.875 l -45.875,-171.15625 C 80.72131,-566.11332 9.014534,-536.12181 -57.25,-497.78125 z M 202.28125,-415.1875 248.125,-244 c 43.89475,-11.73433 90.03055,-18 137.625,-18 l 0,-177.1875 c -63.4442,0 -124.9549,8.3614 -183.46875,24 z M 385.75,-262 l 0,177.15625 c 31.72342,0 62.46074,4.180074 91.71875,12 L 523.34375,-244 C 479.44902,-255.73433 433.34443,-262 385.75,-262 z m 137.59375,18 c 45.40957,12.13929 88.43012,30.12021 128.1875,53.125 L 740.125,-344.3125 c -53.02101,-30.6791 -110.37739,-54.68952 -170.9375,-70.875 z m 128.1875,53.125 -88.625,153.4375 c 26.89071,15.557084 51.55195,34.5519487 73.375,56.375 L 761.5625,-106.34375 c -32.72534,-32.72534 -69.70847,-61.1993 -110.03125,-84.53125 z m 110.03125,84.53125 c 32.72534,32.725345 61.1993,69.708455 84.53125,110.03125 L 999.5312,-84.90625 C 968.4225,-138.67134 930.47849,-187.99026 886.84375,-231.625 z M 846.09375,3.6875 692.65625,92.3125 c 15.33312,26.50359 27.31566,55.16679 35.40625,85.4375 L 899.21875,131.875 C 887.07946,86.465411 869.09854,43.444893 846.09375,3.6875 z m 53.125,128.1875 c 11.73433,43.89475 18,89.9993 18,137.59375 l 177.18745,0 c 0,-63.4442 -8.3614,-124.92365 -24,-183.4375 z m 18,137.59375 -177.15625,0 c 0,31.72342 -4.18007,62.49199 -12,91.75 l 171.15625,45.875 c 11.73433,-43.89473 18,-90.03057 18,-137.625 z m -18,137.625 c -12.13929,45.40957 -30.12021,88.43012 -53.125,128.1875 L 999.5312,623.875 c 30.6791,-53.02101 54.6899,-110.37739 70.875,-170.9375 z m -53.125,128.1875 L 692.625,446.6875 C 677.0756,473.55748 658.08777,498.19077 636.28125,520 L 511,394.75 c -10.90868,10.90868 -23.21499,20.41009 -36.65625,28.1875 l 88.5625,153.46875 c 26.89071,-15.55708 51.55195,-34.55195 73.375,-56.375 l 125.28125,125.25 c 32.71872,-32.72144 61.20305,-69.68369 84.53125,-110 z m -283.1875,41.125 c -26.50359,15.33312 -55.16679,27.31566 -85.4375,35.40625 l 45.875,171.15625 c 45.40957,-12.13929 88.43012,-30.12021 128.1875,-53.125 z m -39.5625,206.5625 c -43.89473,11.73433 -89.99932,18 -137.59375,18 l 0,177.1875 c 63.4442,0 124.92365,-8.3614 183.4375,-24 z m -137.59375,18 0,-177.15625 c -31.71291,0 -62.46944,-4.18508 -91.71875,-12 L 248.15625,783 c 43.88369,11.72797 90.01265,17.96875 137.59375,17.96875 z M 248.15625,783 C 202.74194,770.86297 159.73041,752.84831 119.96875,729.84375 L 31.375,883.28125 c 53.0145,30.67264 110.35503,54.69189 170.90625,70.875 z m -128.1875,-53.15625 88.59375,-153.4375 c -26.89071,-15.55708 -51.55195,-34.55195 -73.375,-56.375 L 9.90625,645.3125 c 32.731667,32.73166 69.73062,61.19678 110.0625,84.53125 z M 9.90625,645.3125 C -22.819092,612.58716 -51.29305,575.60403 -74.625,535.28125 L -228.0625,623.875 c 31.10964,53.76509 69.05276,103.08401 112.6875,146.71875 z M -74.625,535.28125 78.84375,446.6875 C 63.500446,420.17366 51.500588,391.50347 43.40625,361.21875 l -171.15625,45.875 c 12.13929,45.40957 30.120208,88.43012 53.125,128.1875 z m -53.125,-128.1875 c -11.73433,-43.89473 -18,-90.03057 -18,-137.625 l -177.1875,0 c 0,63.4442 8.3614,124.9549 24,183.46875 z m -18,-137.625 177.15625,0 c 0,-31.72342 4.180074,-62.46074 12,-91.71875 L -127.75,131.875 c -11.73433,43.89475 -18,89.9993 -18,137.59375 z m 18,-137.59375 C -115.61071,86.465411 -97.629792,43.444893 -74.625,3.6875 l -153.4375,-88.59375 c -30.6791,53.02101 -54.68952,110.377394 -70.875,170.9375 z M -74.625,3.6875 78.8125,92.3125 c 15.55708,-26.890712 34.55195,-51.551949 56.375,-73.375 L 9.9375,-106.34375 c 32.721451,-32.71872 69.68368,-61.20305 110,-84.53125 L 31.34375,-344.3125 c -53.758628,31.1059 -103.056648,69.05937 -146.6875,112.6875 l 125.25,125.28125 C -22.819092,-73.618405 -51.29305,-36.635295 -74.625,3.6875 z M 119.9375,-190.875 208.53125,-37.40625 C 235.04509,-52.749554 263.71528,-64.749412 294,-72.84375 L 248.125,-244 c -45.40959,12.13929 -88.43011,30.12021 -128.1875,53.125 z M 294,-72.84375 339.875,98.34375 c 14.63346,-3.912522 30.00791,-6.03125 45.875,-6.03125 l 0,-177.15625 c -31.72342,0 -62.49199,4.180074 -91.75,12 z m 91.75,165.15625 0,177.125 45.84375,-171.09375 C 416.9636,94.433128 401.61309,92.3125 385.75,92.3125 z m 45.84375,6.03125 c 15.13794,4.04635 29.4964,10.01868 42.75,17.6875 l 88.5625,-153.46875 c -26.50359,-15.33312 -55.16679,-27.315656 -85.4375,-35.40625 z m 42.75,17.6875 L 385.75,269.4375 511,144.21875 c -10.90868,-10.90867 -23.21499,-20.4101 -36.65625,-28.1875 z M 511,144.21875 c 10.90939,10.90938 20.40981,23.24522 28.1875,36.6875 L 692.65625,92.3125 C 677.09917,65.421788 658.1043,40.760551 636.28125,18.9375 z m 28.1875,36.6875 -153.40625,88.5625 L 556.875,223.625 c -4.04609,-15.13695 -10.0194,-29.46588 -17.6875,-42.71875 z M 556.875,223.625 c 3.91063,14.63016 6.03125,29.98064 6.03125,45.84375 l 177.15625,0 c 0,-31.72342 -4.18007,-62.46074 -12,-91.71875 z m 6.03125,45.84375 -177.125,0 0,0.0312 171.09375,45.84375 c 3.91253,-14.63345 6.03125,-30.00793 6.03125,-45.875 z m -6.03125,45.875 c -4.04842,15.14172 -10.01483,29.49387 -17.6875,42.75 L 692.625,446.6875 c 15.3433,-26.51384 27.34316,-55.18403 35.4375,-85.46875 z m -17.6875,42.75 -153.375,-88.5625 L 511,394.71875 c 10.89647,-10.8992 20.41607,-23.19824 28.1875,-36.625 z M 339.875,98.34375 c -15.14173,4.04842 -29.49387,10.01484 -42.75,17.6875 l 88.5625,153.375 L 260.5,144.21875 c 10.8992,-10.89646 23.19824,-20.41608 36.625,-28.1875 l -88.59375,-153.4375 c -26.86998,15.549397 -51.50327,34.537225 -73.3125,56.34375 l 125.25,125.28125 c -10.90938,10.90938 -20.40981,23.24522 -28.1875,36.6875 l 153.40625,88.5625 0.0312,0 0,-0.0312 z m 45.8125,171.125 L 214.59375,223.625 c -3.91062,14.63016 -6.03125,29.98064 -6.03125,45.84375 z m -177.125,0 -177.15625,0 c 0,31.72342 4.180074,62.49199 12,91.75 L 214.59375,315.375 c -3.91756,-14.64221 -6.03125,-30.02861 -6.03125,-45.90625 z m 6.03125,45.90625 c 4.04833,15.13094 10.01978,29.47116 17.6875,42.71875 L 385.75,269.5 z m 17.6875,42.71875 -153.4375,88.59375 c 15.55312,26.87641 34.53065,51.53065 56.34375,73.34375 L 260.46875,394.75 c -10.9031,-10.90311 -20.41232,-23.22299 -28.1875,-36.65625 z m 28.1875,36.65625 c 10.90938,10.90939 23.24522,20.40981 36.6875,28.1875 L 385.75,269.53125 z M 385.75,269.53125 431.59375,440.625 c 15.13794,-4.04636 29.4964,-10.01867 42.75,-17.6875 z m 0,0 -45.875,171.125 c 14.63113,3.91118 30.01072,6 45.875,6 z m 0,177.125 0,177.15625 c 31.72342,0 62.46074,-4.18007 91.71875,-12 l -45.875,-171.1875 c -14.63015,3.91063 -29.98066,6.03125 -45.84375,6.03125 z m -45.875,-6 C 324.73923,436.61017 310.40818,430.60506 297.15625,422.9375 L 208.5625,576.40625 c 26.51207,15.33803 55.18733,27.31557 85.46875,35.40625 z M 214.59375,223.625 c 4.04609,-15.13695 10.01941,-29.46588 17.6875,-42.71875 L 78.8125,92.3125 C 63.47938,118.81609 51.496844,147.47929 43.40625,177.75 z"
         style="fill:url(#radialGradient3230);fill-opacity:1;stroke:none" />
      <path
         style="fill:url(#radialGradient3227);fill-opacity:1;stroke:#6264d9;stroke-width:0.01;stroke-linecap:butt;stroke-linejoin:miter;stroke-miterlimit:4;stroke-opacity:1;stroke-dasharray:none"
         d="m 385.75,1686.8125 c -126.89534,0 -249.90398,-16.6882 -366.9375,-47.9688 15.29333,-57.0621 30.58365,-114.1249 45.875,-171.1875 102.40146,27.3688 210.03247,42 321.0625,42 z m 0,-177.1563 0,-177.1875 c 95.17486,0 187.40964,-12.5068 275.1875,-35.9687 l 45.84375,171.1562 c -102.40146,27.3688 -210.00122,42 -321.03125,42 z m 321.03125,-42 c 105.97043,-28.3227 206.34644,-70.3179 299.12495,-124 l 88.25,152.8438 0.375,0.625 c -106.3633,61.5433 -221.4738,109.6273 -342.99995,141.9999 0.29593,-0.3713 0.61046,-0.72 0.90625,-1.0937 z m 299.12495,-124 -88.5937,-153.4375 c 80.6538,-46.6662 154.6061,-103.6373 220.0625,-169.0937 l 125.2812,125.2812 c -76.3658,76.3658 -162.6538,142.8061 -256.75,197.25 z m 256.75,-197.25 c 76.366,-76.3658 142.8062,-162.65388 197.25,-256.75 l 152.8438,88.25 0.625,0.34375 c -62.2204,107.53865 -138.1639,206.16105 -225.4375,293.43755 l -0.3437,-0.3438 z m 197.25,-256.75 -153.4374,-88.59375 c 46.0099,-79.52021 82.0047,-165.54957 106.2812,-256.375 l 171.1562,45.84375 c -28.3224,105.97043 -70.3178,206.34554 -124,299.125 z m 124,-299.125 c 27.3689,-102.40146 42,-210.00122 42,-321.03125 l 176.6563,0 0.5,0 c 0,126.89935 -16.6865,249.87012 -47.9687,366.90625 l -0.8126,-0.21875 z m 42,-321.03125 -177.1874,0 c 0,-95.17483 -12.5068,-187.44091 -35.9688,-275.21875 l 171.1562,-45.84375 c 27.3689,102.40146 42,210.03247 42,321.0625 z m -42,-321.0625 c -28.3224,-105.97043 -70.3178,-206.34554 -124,-299.125 l 152.8438,-88.25 0.5938,-0.34375 c 61.3513,106.0338 109.3808,220.7345 141.75,341.84375 l -0.8126,0.21875 z m -124,-299.125 -153.4374,88.59375 c -46.6625,-80.64735 -103.644,-154.57786 -169.0938,-220.0313 l -125.25,125.25005 C 957.578,-411.42204 895.93025,-458.89286 828.71875,-497.7813 l 88.59375,-153.4375 c 80.6526,46.6658 154.6069,103.6069 220.0625,169.0625 l 125.2812,-125.25 c 76.3597,76.3619 142.8099,162.62908 197.25,256.71875 z M 917.3125,-651.2188 c -79.52105,-46.0111 -165.54842,-82.0357 -256.375,-106.3125 l 45.84375,-171.1562 c 105.97043,28.3224 206.34644,70.3178 299.12495,124 z m 88.5937,-153.4687 88.25,-152.8438 0.3438,-0.625 c 107.5488,62.2263 206.1558,138.1843 293.4375,225.4688 l -0.3437,0.3437 -124.9376,124.9063 c -76.3658,-76.366 -162.6538,-142.8062 -256.75,-197.25 z m -299.12495,-124 C 604.37979,-956.0571 496.78003,-970.6563 385.75,-970.6563 l 0,-176.6875 0,-0.5 c 126.89536,0 249.87292,16.6883 366.90625,47.9687 l -0.21875,0.8126 z M 385.75,-970.6563 l 0,177.1562 c -95.16692,0 -187.41621,12.5106 -275.1875,35.9688 l -45.875,-171.1562 c 102.40146,-27.3689 210.03247,-41.9688 321.0625,-41.9688 z m -321.0625,41.9688 c -105.97043,28.3224 -206.34554,70.3178 -299.125,124 l -88.25,-152.8438 -0.375,-0.625 c 106.0368,-61.3542 220.76156,-109.3486 341.875,-141.7188 l 0.21875,0.8126 z m -299.125,124 88.59375,153.4687 c -80.65265,46.6658 -154.60695,103.6069 -220.06255,169.0625 l -125.2812,-125.2812 c 76.3658,-76.366 162.6539,-142.8062 256.75,-197.25 z m -256.75,197.25 c -76.3658,76.3658 -142.8061,162.65383 -197.25,256.74995 l -152.8438,-88.25 -0.625,-0.375 c 62.22,-107.53285 138.1663,-206.13435 225.4375,-293.40625 l 0.375,0.375 z m -197.25,256.74995 153.4687,88.59375 c -46.0111,79.52104 -82.0356,165.54844 -106.3125,256.375 l -171.1562,-45.84375 c 28.3227,-105.97043 70.3179,-206.34554 124,-299.125 z m -124,299.125 c -27.3688,102.40146 -41.9688,210.03247 -41.9688,321.0625 l -176.6875,0 -0.5,0 c 0,-126.89533 16.6883,-249.90395 47.9688,-366.9375 l 0.8125,0.21875 z m -41.9688,321.0625 177.1563,0 c 0,95.17486 12.5068,187.40964 35.9687,275.1875 l -171.1562,45.84375 c -27.3688,-102.40146 -41.9688,-210.00122 -41.9688,-321.03125 z m 41.9688,321.03125 c 28.3227,105.97043 70.3179,206.34554 124,299.125 l -152.8438,88.25 -0.625,0.375 C -903.2605,872.24451 -951.2549,757.51953 -983.625,636.4062 l 0.8125,-0.21875 z m 124,299.125 153.4687,-88.59375 c 46.6659,80.65264 103.607,154.60691 169.0625,220.06245 l -125.25,125.2813 c 76.362,76.3592 162.6291,142.8099 256.7188,197.25 l -88.25,152.8438 -0.3438,0.625 c -107.5353,-62.2187 -206.1325,-138.1667 -293.4062,-225.4375 l 0.3437,-0.3438 124.9063,-124.9375 c -76.3658,-76.3658 -142.8061,-162.65388 -197.25,-256.75 z m 454,454 88.59375,-153.4375 c 79.51808,46.009 165.55227,82.0047 256.375,106.2813 L 64.6875,1467.6562 c -105.97043,-28.3227 -206.34554,-70.3179 -299.125,-124 z m 344.96875,-47.1562 45.875,-171.1875 c 73.15059,19.5529 150.02851,30 229.34375,30 l 0,177.1562 c -95.17746,0 -187.43873,-12.5055 -275.21875,-35.9687 z M 385.75,1155.3125 l 0,-177.1563 c 63.4442,0 124.92365,-8.3614 183.4375,-24 l 45.875,171.1875 c -73.14169,19.5479 -150.008,29.9688 -229.3125,29.9688 z m 229.3125,-29.9688 c 75.69585,-20.2305 147.38307,-50.2482 213.65625,-88.5937 l 88.59375,153.4687 C 837.79229,1236.229 751.76293,1272.2234 660.9375,1296.5 z M 828.71875,1036.75 740.125,883.2812 C 793.89009,852.17156 843.20901,814.22844 886.84375,770.5937 L 1012.125,895.87495 C 957.578,950.42195 895.93025,997.86147 828.71875,1036.75 z M 1012.125,895.87495 C 1066.672,841.32795 1114.1115,779.68021 1153,712.4687 l 153.4688,88.59375 c -46.6667,80.65382 -103.6374,154.6061 -169.0938,220.06245 z M 1153,712.4687 999.5312,623.87495 c 30.6791,-53.02101 54.6899,-110.37739 70.875,-170.9375 l 171.1876,45.875 C 1221.3632,574.50832 1191.3456,646.19551 1153,712.4687 z m 88.5938,-213.65625 c 19.5478,-73.14171 29.9687,-150.00798 29.9687,-229.3125 l 177.1563,0 c 0,95.17486 -12.5068,187.40964 -35.9688,275.1875 z m 29.9687,-229.3125 -177.1563,0 c 0,-63.4442 -8.3614,-124.9549 -24,-183.46875 l 171.1563,-45.875 c 19.553,73.15058 30,150.02851 30,229.34375 z m -30,-229.34375 C 1221.3321,-35.52873 1191.3406,-107.23553 1153,-173.50005 l 153.4688,-88.59375 c 46.0099,79.5202 82.0047,165.54959 106.2812,256.375 z M 1153,-173.50005 999.5312,-84.9063 c -31.10495,-53.75863 -69.05932,-103.05665 -112.68745,-146.6875 l -125.28125,125.25 c -32.72534,-32.72534 -69.70847,-61.1993 -110.03125,-84.53125 l 88.59375,-153.4375 c 53.76509,31.10964 103.08401,69.05276 146.71875,112.6875 l 125.28125,-125.25 c 54.547,54.54699 101.9865,116.1635 140.875,183.375 z m -412.875,-170.8125 c -53.02101,-30.6791 -110.37739,-54.68952 -170.9375,-70.875 l 45.875,-171.15625 c 75.69372,20.2305 147.38476,50.2179 213.65625,88.5625 z M 615.0625,-586.3438 c -73.14342,-19.5489 -150.00592,-30 -229.3125,-30 l 0,-177.1563 c 95.17486,0 187.40964,12.5068 275.1875,35.9688 z m -229.3125,-30 0,177.15625 c -63.4442,0 -124.9549,8.3614 -183.46875,24 l -45.875,-171.15625 c 73.15001,-19.5527 150.02922,-30 229.34375,-30 z m -229.34375,30 C 80.72059,-566.1134 9.0151,-536.1222 -57.25,-497.7813 l -88.59375,-153.4375 c 79.52743,-46.0148 165.57162,-82.0356 256.40625,-106.3125 z M -57.25,-497.7813 31.375,-344.31255 c -53.77416,31.11216 -103.10895,69.04645 -146.75,112.6875 l -125.25,-125.25 c 54.547,-54.54699 116.16349,-102.01781 183.375,-140.90625 z m -183.375,140.90625 c -54.547,54.54699 -102.0178,116.1635 -140.9063,183.375 l -153.4375,-88.59375 c 46.6659,-80.65263 103.607,-154.60695 169.0625,-220.0625 z m -140.9063,183.375 153.4688,88.59375 c -30.6791,53.02101 -54.6895,110.37739 -70.875,170.9375 l -171.1563,-45.875 c 20.2305,-75.68565 50.2217,-147.39116 88.5625,-213.65625 z M -470.0938,40.1562 c -19.5526,73.15 -30,150.02922 -30,229.34375 l -177.1562,0 c 0,-95.17483 12.5068,-187.44091 35.9687,-275.21875 z m -30,229.34375 177.1563,0 c 0,63.4442 8.3614,124.92365 24,183.4375 l -171.1563,45.875 c -19.5488,-73.14344 -30,-150.00589 -30,-229.3125 z m 30,229.3125 c 20.2305,75.69374 50.218,147.38475 88.5625,213.65625 l -153.4375,88.59375 c -46.0111,-79.52105 -82.0356,-165.54842 -106.3125,-256.375 z m 88.5625,213.65625 153.4688,-88.59375 c 31.10964,53.76509 69.05276,103.08401 112.6875,146.71875 l -125.25,125.28125 c -54.547,-54.547 -102.0178,-116.19474 -140.9063,-183.40625 z m 140.9063,183.40625 c 54.547,54.547 116.16349,101.98652 183.375,140.87505 l -88.59375,153.4687 C -226.4911,1143.5563 -300.4225,1086.5748 -365.875,1021.1249 z M -57.25,1036.75 31.34375,883.2812 c 53.02101,30.6791 110.37739,54.68952 170.9375,70.875 l -45.875,171.1563 C 80.72131,1105.082 9.01453,1075.0905 -57.25,1036.75 z M 202.28125,954.1562 248.125,782.9687 c 43.89475,11.73433 90.03055,18 137.625,18 l 0,177.1875 c -63.4442,0 -124.9549,-8.3614 -183.46875,-24 z M 385.75,800.9687 l 0,-177.15625 c 31.72342,0 62.46074,-4.18007 91.71875,-12 l 45.875,171.15625 c -43.89473,11.73433 -89.99932,18 -137.59375,18 z m 137.59375,-18 c 45.40957,-12.13929 88.43012,-30.12021 128.1875,-53.125 L 740.125,883.2812 c -53.02101,30.6791 -110.37739,54.68952 -170.9375,70.875 z m 128.1875,-53.125 -88.625,-153.4375 c 26.89071,-15.55708 51.55195,-34.55195 73.375,-56.375 L 761.5625,645.31245 c -32.72534,32.72534 -69.70847,61.1993 -110.03125,84.53125 z M 761.5625,645.31245 C 794.28784,612.5871 822.7618,575.60399 846.09375,535.2812 L 999.5312,623.87495 C 968.42251,677.64004 930.47849,726.95896 886.84375,770.5937 z m 84.53125,-110.03125 -153.4375,-88.625 c 15.33312,-26.50359 27.31566,-55.16679 35.40625,-85.4375 l 171.15625,45.875 c -12.13929,45.40959 -30.12021,88.43011 -53.125,128.1875 z m 53.125,-128.1875 c 11.73433,-43.89475 18,-89.9993 18,-137.59375 l 177.18745,0 c 0,63.4442 -8.3614,124.92365 -24,183.4375 z m 18,-137.59375 -177.15625,0 c 0,-31.72342 -4.18007,-62.49199 -12,-91.75 l 171.15625,-45.875 c 11.73433,43.89473 18,90.03057 18,137.625 z m -18,-137.625 C 887.07946,86.46538 869.09854,43.44483 846.09375,3.68745 L 999.5312,-84.9063 c 30.6791,53.02101 54.6899,110.37739 70.875,170.9375 z M 846.09375,3.68745 692.625,92.2812 C 677.0756,65.41122 658.08777,40.77793 636.28125,18.9687 L 511,144.2187 c -10.90868,-10.90868 -23.21499,-20.41009 -36.65625,-28.1875 l 88.5625,-153.46875 c 26.89071,15.55708 51.55195,34.55195 73.375,56.375 l 125.28125,-125.25 c 32.71872,32.72144 61.20305,69.68369 84.53125,110 z m -283.1875,-41.125 c -26.50359,-15.33312 -55.16679,-27.31566 -85.4375,-35.40625 l 45.875,-171.15625 c 45.40957,12.13929 88.43012,30.12021 128.1875,53.125 z m -39.5625,-206.5625 c -43.89473,-11.73433 -89.99932,-18 -137.59375,-18 l 0,-177.1875 c 63.4442,0 124.92365,8.3614 183.4375,24 z m -137.59375,-18 0,177.15625 c -31.71291,0 -62.46944,4.18508 -91.71875,12 l -45.875,-171.1875 c 43.88369,-11.72797 90.01265,-17.96875 137.59375,-17.96875 z m -137.59375,17.96875 c -45.41431,12.13703 -88.42584,30.15169 -128.1875,53.15625 L 31.375,-344.31255 c 53.0145,-30.67264 110.35503,-54.69189 170.90625,-70.875 z m -128.1875,53.15625 88.59375,153.4375 c -26.89071,15.55708 -51.55195,34.55195 -73.375,56.375 L 9.90625,-106.3438 c 32.73167,-32.73166 69.73062,-61.19678 110.0625,-84.53125 z M 9.90625,-106.3438 C -22.81909,-73.61846 -51.29305,-36.63533 -74.625,3.68745 L -228.0625,-84.9063 c 31.10964,-53.76509 69.05276,-103.08401 112.6875,-146.71875 z M -74.625,3.68745 78.84375,92.2812 c -15.3433,26.51384 -27.34316,55.18403 -35.4375,85.46875 L -127.75,131.87495 c 12.13929,-45.40957 30.12021,-88.43012 53.125,-128.1875 z m -53.125,128.1875 c -11.73433,43.89473 -18,90.03057 -18,137.625 l -177.1875,0 c 0,-63.4442 8.3614,-124.9549 24,-183.46875 z m -18,137.625 177.15625,0 c 0,31.72342 4.18007,62.46074 12,91.71875 L -127.75,407.0937 c -11.73433,-43.89475 -18,-89.9993 -18,-137.59375 z m 18,137.59375 c 12.13929,45.40959 30.12021,88.43011 53.125,128.1875 l -153.4375,88.59375 c -30.6791,-53.02101 -54.6895,-110.37739 -70.875,-170.9375 z m 53.125,128.1875 153.4375,-88.625 c 15.55708,26.89071 34.55195,51.55195 56.375,73.375 L 9.9375,645.31245 c 32.72145,32.71872 69.68368,61.20305 110,84.53125 L 31.34375,883.2812 C -22.41488,852.1753 -71.7129,814.22183 -115.34375,770.5937 L 9.90625,645.31245 C -22.81909,612.5871 -51.29305,575.60399 -74.625,535.2812 z m 194.5625,194.5625 88.59375,-153.46875 c 26.51384,15.3433 55.18403,27.34316 85.46875,35.4375 L 248.125,782.9687 C 202.71541,770.82941 159.69489,752.84849 119.9375,729.8437 z M 294,611.81245 339.875,440.62495 c 14.63346,3.91252 30.00791,6.03125 45.875,6.03125 l 0,177.15625 c -31.72342,0 -62.49199,-4.18007 -91.75,-12 z m 91.75,-165.15625 0,-177.125 45.84375,171.09375 c -14.63015,3.91062 -29.98066,6.03125 -45.84375,6.03125 z m 45.84375,-6.03125 c 15.13794,-4.04635 29.4964,-10.01868 42.75,-17.6875 l 88.5625,153.46875 c -26.50359,15.33312 -55.16679,27.31566 -85.4375,35.40625 z m 42.75,-17.6875 L 385.75,269.5312 511,394.74995 c -10.90868,10.90867 -23.21499,20.4101 -36.65625,28.1875 z M 511,394.74995 c 10.90939,-10.90938 20.40981,-23.24522 28.1875,-36.6875 l 153.46875,88.59375 c -15.55708,26.89071 -34.55195,51.55195 -56.375,73.375 z m 28.1875,-36.6875 -153.40625,-88.5625 171.09375,45.84375 c -4.04609,15.13695 -10.0194,29.46588 -17.6875,42.71875 z M 556.875,315.3437 c 3.91063,-14.63016 6.03125,-29.98064 6.03125,-45.84375 l 177.15625,0 c 0,31.72342 -4.18007,62.46074 -12,91.71875 z m 6.03125,-45.84375 -177.125,0 0,-0.0312 L 556.875,223.625 c 3.91253,14.63345 6.03125,30.00793 6.03125,45.875 z m -6.03125,-45.875 c -4.04842,-15.14172 -10.01483,-29.49387 -17.6875,-42.75 L 692.625,92.2812 c 15.3433,26.51384 27.34316,55.18403 35.4375,85.46875 z m -17.6875,-42.75 -153.375,88.5625 L 511,144.24995 c 10.89647,10.8992 20.41607,23.19824 28.1875,36.625 z m -199.3125,259.75 c -15.14173,-4.04842 -29.49387,-10.01484 -42.75,-17.6875 L 385.6875,269.56245 260.5,394.74995 c 10.8992,10.89646 23.19824,20.41608 36.625,28.1875 l -88.59375,153.4375 c -26.86998,-15.5494 -51.50327,-34.53723 -73.3125,-56.34375 l 125.25,-125.28125 c -10.90938,-10.90938 -20.40981,-23.24522 -28.1875,-36.6875 l 153.40625,-88.5625 0.0312,0 0,0.0312 z m 45.8125,-171.125 -171.09375,45.84375 c -3.91062,-14.63016 -6.03125,-29.98064 -6.03125,-45.84375 z m -177.125,0 -177.15625,0 c 0,-31.72342 4.18007,-62.49199 12,-91.75 l 171.1875,45.84375 c -3.91756,14.64221 -6.03125,30.02861 -6.03125,45.90625 z m 6.03125,-45.90625 c 4.04833,-15.13094 10.01978,-29.47116 17.6875,-42.71875 L 385.75,269.4687 z M 232.28125,180.87495 78.84375,92.2812 C 94.39687,65.40479 113.3744,40.75055 135.1875,18.93745 L 260.46875,144.2187 c -10.9031,10.90311 -20.41232,23.22299 -28.1875,36.65625 z m 28.1875,-36.65625 c 10.90938,-10.90939 23.24522,-20.40981 36.6875,-28.1875 L 385.75,269.43745 z M 385.75,269.43745 431.59375,98.3437 c 15.13794,4.04636 29.4964,10.01867 42.75,17.6875 z m 0,0 -45.875,-171.125 c 14.63113,-3.91118 30.01072,-6 45.875,-6 z m 0,-177.125 0,-177.15625 c 31.72342,0 62.46074,4.18007 91.71875,12 l -45.875,171.1875 C 416.9636,94.43307 401.61309,92.31245 385.75,92.31245 z m -45.875,6 c -15.13577,4.04608 -29.46682,10.05119 -42.71875,17.71875 L 208.5625,-37.43755 c 26.51207,-15.33803 55.18733,-27.31557 85.46875,-35.40625 z M 214.59375,315.3437 c 4.04609,15.13695 10.01941,29.46588 17.6875,42.71875 L 78.8125,446.6562 C 63.47938,420.15261 51.49684,391.48941 43.40625,361.2187 z"
         id="path4419"
         inkscape:connector-curvature="0"
         sodipodi:nodetypes="cccccccccccccccccccccccccccccccccccccccccccccccccccccccccccccccccccccccccccccccccccccccccccccccccccccccccccccccccccccccccccccccccccccccccccccccccccccccccccccccccccccccccccccccccccccccccccccccccccccccccccccccccccccccccccccccccccccccccccccccccccccccccccccccccccccccccccccccccccccccccccccccccccccccccccccccccccccccccccccccccccccccccccccccccccccccccccccccccccccccccccccccccccccccccccccccccccccccccccccccccccccccccccccccccccccccccccccccccccccccccccccccccccccccccccccccccccccccccccccccccccccc" />
      <!-- <path
         sodipodi:nodetypes="ccccccccccccccccccccc"
         inkscape:connector-curvature="0"
         id="path7719"
         d="m 1459.9062,889.6562 152.8438,88.25 0.625,0.34375 M 1459.9062,889.6562 1306.4688,801.06245 M 385.75,-970.6563 l 0,-176.6875 0,-0.5 m 0,177.1875 0,177.1562 m -1074.1875,1683.1563 -152.8438,88.25 -0.625,0.375 m 153.4688,-88.625 153.4687,-88.59375 M 1153,712.4687 1306.4688,801.06245 M 385.75,-616.3438 l 0,-177.1563 m -767.2813,1505.9688 -153.4375,88.59375"
         style="fill:none;stroke:#929292;stroke-width:9;stroke-linecap:butt;stroke-linejoin:miter;stroke-miterlimit:4;stroke-opacity:1;stroke-dasharray:none" /> -->
      <!-- <path
         style="fill:none;stroke:#6d6d6d;stroke-width:15;stroke-linecap:butt;stroke-linejoin:miter;stroke-miterlimit:4;stroke-opacity:1;stroke-dasharray:none"
         d="m 1459.9062,889.6562 152.8438,88.25 0.625,0.34375 M 385.75,-970.6563 l 0,-176.6875 0,-0.5 m -1074.1875,2037.5 -152.8438,88.25 -0.625,0.375"
         id="path7756"
         inkscape:connector-curvature="0"
         sodipodi:nodetypes="ccccccccc" /> -->
      <path
         transform="matrix(1.3229677,0,0,1.3229677,2117.7733,684.10977)"
         d="m -1041.3771,-313.40555 a 267.8302,267.8302 0 0 1 -267.8302,267.830202 267.8302,267.8302 0 0 1 -267.8302,-267.830202 267.8302,267.8302 0 0 1 267.8302,-267.8302 267.8302,267.8302 0 0 1 267.8302,267.8302 z"
         sodipodi:ry="267.8302"
         sodipodi:rx="267.8302"
         sodipodi:cy="-313.40555"
         sodipodi:cx="-1309.2073"
         id="path6301"
         style="fill:url(#radialGradient6309-2);fill-opacity:1;fill-rule:evenodd;stroke:none"
         sodipodi:type="arc" />
      <!-- <g -->
         <!-- style="stroke:#6d6d6d;stroke-width:1;stroke-miterlimit:4;stroke-opacity:1;stroke-dasharray:none" -->
         <!-- id="g6735"> -->
        <!-- <path
           style="fill:none;stroke:#6d6d6d;stroke-width:1;stroke-linecap:butt;stroke-linejoin:miter;stroke-miterlimit:4;stroke-opacity:1;stroke-dasharray:none"
           d="m 385.75118,-1147.8437 c -118.08455,54.7616 -227.04484,129.1378 -321.062597,219.15706 -84.226597,80.64447 -156.611051,174.04443 -210.532673,277.43741 -47.906,91.85821 -81.14587,191.64379 -94.77993,294.34251 -12.01222,90.48221 -8.70874,183.23869 12.56103,272.001973 18.69067,78.0001421 51.50173,153.134649 100.31456,216.779527 42.959934,56.01354 97.887634,102.53067 159.154729,137.5937 C 140.59521,331.95706 270.47975,357.54685 395.20964,341.1305 519.93953,324.71416 638.78357,266.38535 728.06299,177.74998 778.13992,128.0343 819.12693,68.896842 846.09409,3.6885606 876.73982,-70.414751 888.94694,-151.46348 886.84213,-231.62601 884.44514,-322.91619 863.72091,-413.43451 828.71772,-497.78152 789.00735,-593.4714 731.04046,-681.2471 660.93858,-757.53073 582.07843,-843.34496 487.96574,-914.69624 385.75118,-970.689 c -114.1011,-62.5042 -238.5488,-106.0681 -366.721652,-128.374"
           id="path4314"
           inkscape:path-effect="#path-effect6667-0"
           inkscape:original-d="m 385.75118,-1147.8437 c -55.02116,35.8833 -287.57146,188.05814 -321.062597,219.15706 -33.491142,31.09891 -205.748223,229.59292 -210.532673,277.43741 -4.78445,47.84449 -94.77993,244.1058 -94.77993,294.34251 0,50.23671 7.77659,221.76526 12.56103,272.001973 4.78445,50.236717 78.78454,173.719489 100.31456,216.779527 21.53002,43.06004 118.486914,106.49478 159.154729,137.5937 C 72.074114,300.56739 696.96407,225.59447 728.06299,177.74998 759.16191,129.9055 834.13297,77.847517 846.09409,3.6885606 858.05521,-70.470397 894.0188,-131.15259 886.84213,-231.62601 879.66546,-332.09944 878.95443,-394.91587 828.71772,-497.78152 778.481,-600.64717 708.78307,-707.29402 660.93858,-757.53073 613.09409,-807.76744 440.77234,-944.37453 385.75118,-970.689 330.73002,-997.00347 81.22736,-1077.533 19.029528,-1099.063"
           inkscape:connector-curvature="0"
           sodipodi:nodetypes="cssssssssssssc" /> -->
        <!-- <path
           style="fill:none;stroke:#6d6d6d;stroke-width:1;stroke-miterlimit:4;stroke-opacity:1;stroke-dasharray:none"
           d="m 385.75181,1686.8126 c 118.08455,-54.7617 227.04483,-129.138 321.0626,-219.1572 84.22659,-80.6445 156.61105,-174.0444 210.53267,-277.4374 47.90599,-91.8582 81.14586,-191.64377 94.77992,-294.34248 12.0122,-90.48221 8.7088,-183.23868 -12.561,-272.00197 C 980.87533,545.8734 948.06426,470.7389 899.25142,407.09402 856.29148,351.08048 801.36379,304.56335 740.0967,269.50032 630.90779,207.01173 501.02325,181.42194 376.29336,197.83829 251.56346,214.25464 132.71942,272.58345 43.440005,361.21882 -6.6369235,410.9345 -47.623942,470.07196 -74.591099,535.28024 c -30.645731,74.10331 -42.852851,155.15204 -40.748041,235.31457 2.39699,91.29017 23.12122,181.80848 58.124411,266.15549 39.710371,95.6899 97.677265,183.4656 167.779139,259.7492 78.86015,85.8142 172.97283,157.1655 275.1874,213.1583 114.1011,62.5042 238.54881,106.0681 366.72166,128.374"
           id="path4449"
           inkscape:path-effect="#path-effect6652-2"
           inkscape:original-d="m 385.75181,1686.8126 c 55.02116,-35.8833 287.57146,-188.0582 321.0626,-219.1572 33.49114,-31.0989 205.74822,-229.5929 210.53267,-277.4374 4.78445,-47.8445 94.77992,-244.10577 94.77992,-294.34248 0,-50.23671 -7.7766,-221.76526 -12.561,-272.00197 C 994.7815,573.63683 920.78144,450.15406 899.25142,407.09402 877.7214,364.03398 780.76451,300.59924 740.0967,269.50032 699.42888,238.40141 74.538925,313.37433 43.440005,361.21882 12.341085,409.0633 -62.629979,461.12128 -74.591099,535.28024 c -11.96112,74.15896 -47.924711,134.84115 -40.748041,235.31457 7.17667,100.47343 7.8877,163.28986 58.124411,266.15549 50.23672,102.8657 119.934654,209.5125 167.779139,259.7492 47.84449,50.2367 220.16624,186.8438 275.1874,213.1583 55.02116,26.3145 304.52382,106.844 366.72166,128.374"
           inkscape:connector-curvature="0"
           sodipodi:nodetypes="cssssssssssssc" /> -->
        <!-- <path
           sodipodi:nodetypes="cssssssssssssc"
           inkscape:connector-curvature="0"
           inkscape:original-d="m 1094.4153,-957.95789 c -65.5914,3.56527 -343.07326,19.0774 -387.6269,29.26428 -44.55363,10.18688 -292.97964,95.95919 -321.04534,135.00151 -28.0657,39.04232 -204.13473,164.01186 -229.25309,207.51813 -25.11835,43.50626 -104.147901,195.94264 -125.122811,241.84113 -20.974903,45.8985 -18.630331,189.83776 -21.5148062,237.89385 C 6.9678787,-58.382887 59.21764,45.031656 78.887541,92.298018 98.557446,139.56437 677.21448,387.0809 728.06918,361.19581 c 50.85469,-25.88507 141.81053,-33.48308 189.24864,-91.72606 47.43811,-58.24298 108.92458,-92.8135 152.94608,-183.414373 44.0216,-90.6008774 74.814,-145.357016 82.7406,-259.559637 7.9265,-114.20263 0.8898,-241.41047 -15.4264,-308.83898 -16.3162,-67.42852 -97.2477,-271.8946 -131.7402,-322.19418 C 971.34546,-854.837 795.53458,-1049.3289 752.43468,-1099.0734"
           inkscape:path-effect="#path-effect6637-3"
           id="path4469"
           d="m 1094.4153,-957.95789 c -129.64504,-11.61731 -261.19552,-1.68577 -387.6269,29.26428 -113.26461,27.72686 -222.65135,72.42137 -321.04534,135.00151 -87.41692,55.59855 -166.09629,125.39545 -229.25309,207.51813 -55.64399,72.35378 -99.161334,154.33498 -125.122811,241.84113 C 8.5536856,-267.4374 -0.59836182,-185.96349 9.8523528,-106.43899 19.049975,-36.449872 43.360193,31.298998 78.887541,92.298018 142.20362,201.00917 241.89204,288.11284 358.11947,336.26081 c 116.22742,48.14797 248.31378,57.05576 369.94971,24.935 68.22573,-18.01657 133.29026,-48.7376 189.24864,-91.72606 63.59162,-48.85249 114.68768,-112.93919 152.94608,-183.414373 43.5692,-80.2581083 70.8807,-169.011382 82.7406,-259.559637 13.4548,-102.72505 7.1418,-207.72448 -15.4264,-308.83898 -25.3878,-113.74738 -71.2162,-222.59574 -131.7402,-322.19418 -67.56237,-111.18073 -153.55525,-211.13208 -253.40322,-294.53598"
           style="fill:none;stroke:#6d6d6d;stroke-width:1;stroke-linecap:butt;stroke-linejoin:miter;stroke-miterlimit:4;stroke-opacity:1;stroke-dasharray:none" /> -->
        <!-- <path
           sodipodi:nodetypes="cssssssssssssc"
           inkscape:connector-curvature="0"
           inkscape:original-d="m -322.91231,1496.9268 c 65.59138,-3.5653 343.073292,-19.0775 387.62697,-29.2644 44.55363,-10.1869 292.97963,-95.9592 321.04534,-135.0015 28.06571,-39.0423 204.1347,-164.0119 229.25306,-207.5181 25.11835,-43.5063 104.14789,-195.94267 125.12284,-241.84114 20.97486,-45.89852 18.63031,-189.83777 21.51479,-237.89387 2.88447,-48.0561 -49.36528,-151.47064 -69.03518,-198.737 C 672.9456,399.40444 94.288565,151.88791 43.433866,177.773 c -50.8546949,25.88507 -141.810531,33.48307 -189.248646,91.72605 -47.43811,58.24299 -108.92459,92.81351 -152.94612,183.41438 -44.02154,90.60088 -74.81398,145.35702 -82.74053,259.55962 -7.92658,114.20267 -0.88979,241.41047 15.4264,308.83895 16.31619,67.4285 97.24765,271.8946 131.74012,322.1942 34.49248,50.2996 210.303367,244.7916 253.403276,294.536"
           inkscape:path-effect="#path-effect6622-99"
           id="path4475"
           d="m -322.91231,1496.9268 c 129.64507,11.6172 261.195571,1.6857 387.62697,-29.2644 113.2646,-27.7269 222.65135,-72.4214 321.04534,-135.0015 87.41691,-55.5985 166.09626,-125.3954 229.25306,-207.5181 55.644,-72.3538 99.16136,-154.33498 125.12284,-241.84114 22.81347,-76.89544 31.96551,-158.36937 21.51479,-237.89387 -9.19763,-69.98911 -33.50784,-137.73798 -69.03518,-198.737 C 629.29943,337.95963 529.61101,250.85596 413.38359,202.70799 297.15616,154.56002 165.06979,145.65224 43.433866,177.773 c -68.225732,18.01657 -133.290262,48.7376 -189.248646,91.72605 -63.59164,48.85248 -114.68768,112.93918 -152.94612,183.41438 -43.56923,80.2581 -70.88068,169.01138 -82.74053,259.55962 -13.45474,102.72504 -7.14179,207.72446 15.4264,308.83895 25.38778,113.7474 71.2161,222.5958 131.74012,322.1942 67.56237,111.1808 153.555261,211.1321 253.403276,294.536"
           style="fill:none;stroke:#6d6d6d;stroke-width:1;stroke-miterlimit:4;stroke-opacity:1;stroke-dasharray:none" />
        <path
           style="fill:none;stroke:#6d6d6d;stroke-width:1;stroke-linecap:butt;stroke-linejoin:miter;stroke-miterlimit:4;stroke-opacity:1;stroke-dasharray:none"
           d="m 1613.1935,-439.17992 c -106.4673,-74.88341 -225.3591,-132.05769 -350.3269,-168.46984 -111.9535,-32.62013 -229.0324,-48.60693 -345.53416,-43.60793 -103.50454,4.4413 -206.54133,25.5475 -302.29806,65.08942 -84.36601,34.83822 -163.04373,84.07735 -229.2801,146.87916 -58.20477,55.18667 -106.86763,121.16913 -137.57929,195.26472 -27.02918,65.21117 -39.85035,136.03852 -39.58228,206.628891 0.47776,125.804666 43.25862,251.082869 119.84054,350.893949 76.58192,99.81108 186.51817,173.56863 307.91836,206.56919 68.09351,18.51005 139.80155,24.43712 209.75716,15.18722 79.49822,-10.51167 155.79203,-40.46436 224.16243,-82.36845 77.8611,-47.72094 145.8901,-110.92782 201.4352,-183.41497 63.0147,-82.23513 110.0473,-176.323768 141.0599,-275.1755989 34.8872,-111.2020111 49.6229,-228.3816311 47.0067,-344.8984111 -2.9204,-130.06653 -27.4167,-259.62338 -72.1857,-381.77727"
           id="path4479"
           inkscape:path-effect="#path-effect6697-7"
           inkscape:original-d="m 1613.1935,-439.17992 c -58.5864,-29.70807 -306.6489,-155.01512 -350.3269,-168.46984 -43.678,-13.45472 -301.70739,-63.38672 -345.53416,-43.60793 -43.82677,19.77879 -258.79179,39.97107 -302.29806,65.08942 -43.50626,25.11836 -188.16605,117.61736 -229.2801,146.87916 -41.11405,29.26182 -111.05322,155.08916 -137.57929,195.26472 -26.52608,40.17557 -32.98373,155.86007 -39.58228,206.628891 -6.59854,50.768815 370.77489,554.452929 427.7589,557.463139 56.98399,3.01021 139.55306,41.90807 209.75716,15.18722 70.2041,-26.72084 140.73821,-25.91656 224.16243,-82.36845 83.4242,-56.45189 137.4693,-88.47588 201.4352,-183.41497 63.9659,-94.9391 121.4758,-208.6227 141.0599,-275.1755989 19.584,-66.5528981 51.7283,-284.0914511 47.0067,-344.8984111 -4.7216,-60.80696 -59.7323,-317.14737 -72.1857,-381.77727"
           inkscape:connector-curvature="0"
           sodipodi:nodetypes="cssssssssssssc" />
        <path
           style="fill:none;stroke:#6d6d6d;stroke-width:1;stroke-miterlimit:4;stroke-opacity:1;stroke-dasharray:none"
           d="m -841.69054,978.14877 c 106.46732,74.88333 225.35917,132.05753 350.327,168.46973 111.95346,32.6201 229.03241,48.607 345.53417,43.608 103.50453,-4.4413 206.541299,-25.5475 302.29802,-65.0894 84.36601,-34.8382 163.04374,-84.0774 229.28012,-146.87917 C 443.95354,923.07126 492.6164,857.08879 523.32806,782.99319 550.35724,717.78203 563.17841,646.95468 562.91034,576.36431 562.43259,450.55964 519.65173,325.28144 443.0698,225.47036 366.48788,125.65928 256.55163,51.901726 135.15144,18.901166 67.057934,0.39111379 -4.6501159,-5.5359564 -74.605723,3.7139417 -154.10394,14.225614 -230.39776,44.178303 -298.76814,86.082389 -376.62925,133.80333 -444.6583,197.01019 -500.20335,269.49735 c -63.01467,82.23513 -110.0472,176.32378 -141.05983,275.1756 -34.88723,111.20201 -49.62293,228.38163 -47.00681,344.89842 2.92035,130.06653 27.41671,259.62333 72.18569,381.77723"
           id="path4485"
           inkscape:path-effect="#path-effect6682-0"
           inkscape:original-d="m -841.69054,978.14877 c 58.58643,29.70803 306.64891,155.01513 350.327,168.46973 43.67801,13.4548 301.70739,63.3868 345.53417,43.608 43.82678,-19.7788 258.79176,-39.9711 302.29802,-65.0894 C 199.97492,1100.0187 344.6347,1007.5197 385.74877,978.25793 426.86279,948.99607 496.80198,823.16875 523.32806,782.99319 549.85414,742.81762 556.31179,627.13313 562.91034,576.36431 569.50887,525.59549 192.13544,21.911375 135.15144,18.901166 78.167444,15.890951 -4.4016205,-23.006905 -74.605723,3.7139417 -144.80983,30.434788 -215.34394,29.6305 -298.76814,86.082389 c -83.42421,56.451891 -137.46931,88.475881 -201.43521,183.414961 -63.96595,94.93912 -121.47582,208.62271 -141.05983,275.1756 -19.58402,66.55289 -51.72836,284.09145 -47.00681,344.89842 4.72156,60.80698 59.7323,317.14733 72.18569,381.77723"
           inkscape:connector-curvature="0"
           sodipodi:nodetypes="cssssssssssssc" />
        <path
           sodipodi:nodetypes="cssssssssssssc"
           inkscape:connector-curvature="0"
           inkscape:original-d="m 1803.0796,269.48408 c -35.8833,-55.02116 -188.0581,-287.571461 -219.157,-321.062598 -31.099,-33.491142 -229.593,-205.748222 -277.4375,-210.532672 -47.8444,-4.78445 -244.1058,-94.77993 -294.3425,-94.77993 -50.23667,0 -221.76522,7.77659 -272.00193,12.56103 -50.23672,4.78445 -173.71949,78.78454 -216.77953,100.31456 -43.06004,21.53002 -106.49478,118.48691 -137.5937,159.154728 -31.09891,40.667815 43.87401,665.557762 91.7185,696.656682 47.84448,31.09892 99.90246,106.06998 174.06142,118.0311 74.15896,11.96112 134.84115,47.92471 235.31457,40.74804 100.47343,-7.17667 163.28987,-7.8877 266.15547,-58.12441 102.8657,-50.23672 209.5125,-119.93465 259.7492,-167.77914 50.2368,-47.84449 186.8438,-220.16623 213.1583,-275.18739 26.3145,-55.02116 106.844,-304.523821 128.374,-366.721652"
           inkscape:path-effect="#path-effect4316-39"
           id="path4498"
           d="M 1803.0796,269.48408 C 1748.318,151.39952 1673.9418,42.439226 1583.9226,-51.578518 1503.2781,-135.80513 1409.8781,-208.18957 1306.4851,-262.11119 c -91.8582,-47.90598 -191.6438,-81.14587 -294.3425,-94.77993 -90.4822,-12.01222 -183.23866,-8.70874 -272.00193,12.56103 -78.00014,18.69067 -153.13465,51.50172 -216.77953,100.31456 -56.01354,42.95993 -102.53067,97.88763 -137.5937,159.154728 -62.48858,109.188914 -88.07837,239.073452 -71.66202,363.803342 16.41634,124.72988 74.74515,243.57393 163.38052,332.85334 49.71568,50.07693 108.85314,91.06394 174.06142,118.0311 74.10331,30.64573 155.15204,42.85285 235.31457,40.74804 91.29016,-2.39699 181.80847,-23.12122 266.15547,-58.12441 95.6899,-39.71037 183.4656,-97.67727 259.7492,-167.77914 85.8142,-78.86015 157.1655,-172.97283 213.1583,-275.18739 62.5042,-114.1011 106.0681,-238.548802 128.374,-366.721652"
           style="fill:none;stroke:#6d6d6d;stroke-width:1;stroke-linecap:butt;stroke-linejoin:miter;stroke-miterlimit:4;stroke-opacity:1;stroke-dasharray:none" />
        <path
           sodipodi:nodetypes="cssssssssssssc"
           inkscape:connector-curvature="0"
           inkscape:original-d="m -1031.5767,269.48471 c 35.88334,55.02116 188.05823,287.57145 219.15723,321.06259 31.0989,33.49114 229.5929,205.74822 277.4374,210.53267 47.8445,4.78445 244.10577,94.77992 294.34248,94.77992 50.23671,0 221.765257,-7.7766 272.001966,-12.561 C 81.599096,878.51439 205.08186,804.51433 248.1419,782.98431 291.20194,761.45429 354.63668,664.4974 385.7356,623.82959 416.83451,583.16177 341.86159,-41.728176 294.0171,-72.827096 246.17262,-103.92602 194.11464,-178.89708 119.95569,-190.8582 c -74.158964,-11.96112 -134.841153,-47.92471 -235.31457,-40.74804 -100.47343,7.17667 -163.28986,7.8877 -266.15549,58.12441 -102.8657,50.23672 -209.5125,119.934654 -259.7492,167.7791387 -50.2367,47.8444893 -186.8438,220.1662413 -213.15829,275.1874013 -26.3145,55.02116 -106.844,304.52381 -128.374,366.72165"
           inkscape:path-effect="#path-effect4454-8"
           id="path4504"
           d="m -1031.5767,269.48471 c 54.76172,118.08454 129.13798,227.04482 219.15723,321.06259 80.64448,84.22658 174.04442,156.61105 277.4374,210.53267 91.8582,47.90599 191.64377,81.14586 294.34248,94.77992 90.48221,12.01223 183.238681,8.70877 272.001966,-12.561 C 109.36252,864.60822 184.49702,831.79715 248.1419,782.98431 304.15544,740.02437 350.67257,685.09668 385.7356,623.82959 448.22419,514.64068 473.81397,384.75614 457.39763,260.02625 440.98128,135.29636 382.65246,16.452322 294.0171,-72.827096 244.30142,-122.90402 185.16397,-163.89104 119.95569,-190.8582 c -74.10331,-30.64573 -155.152039,-42.85285 -235.31457,-40.74804 -91.29017,2.39699 -181.80848,23.12122 -266.15549,58.12441 -95.68987,39.71037 -183.46557,97.677263 -259.7492,167.7791387 C -727.07781,73.157463 -798.4291,167.27014 -854.42186,269.48471 c -62.50416,114.1011 -106.06813,238.5488 -128.374,366.72165"
           style="fill:none;stroke:#6d6d6d;stroke-width:1;stroke-miterlimit:4;stroke-opacity:1;stroke-dasharray:none" />
        <path
           sodipodi:nodetypes="cssssssssssssc"
           inkscape:connector-curvature="0"
           inkscape:original-d="m -322.91285,-957.95757 c -29.70807,58.58643 -155.01512,306.64886 -168.46984,350.32688 -13.45472,43.67802 -63.38672,301.70741 -43.60793,345.53418 19.77879,43.82677 39.97107,258.7917882 65.08942,302.298055 25.11836,43.506267 117.61736,188.166055 146.87916,229.280105 29.26182,41.11405 155.08916,111.05322 195.26472,137.57929 40.175569,26.52608 155.86007,32.98373 206.628891,39.58228 C 129.64039,453.24176 633.3245,75.868326 636.33471,18.884323 c 3.01021,-56.983995 41.90807,-139.553063 15.18722,-209.757163 -26.72084,-70.2041 -25.91656,-140.73821 -82.36845,-224.16241 -56.45189,-83.42421 -88.47588,-137.46932 -183.41497,-201.43523 -94.9391,-63.96591 -208.6227,-121.47582 -275.1756,-141.05984 -66.552897,-19.58403 -284.09145,-51.72836 -344.89841,-47.00678 -60.80696,4.72158 -317.14737,59.73229 -381.77727,72.18568"
           inkscape:path-effect="#path-effect6573-6"
           id="path4508"
           d="m -322.91285,-957.95757 c -74.88341,106.46724 -132.05769,225.35907 -168.46984,350.32688 -32.62013,111.95346 -48.60693,229.03242 -43.60793,345.53418 4.4413,103.50454 25.5475,206.541322 65.08942,302.298055 34.83822,84.366005 84.07735,163.043735 146.87916,229.280105 55.18667,58.20477 121.16913,106.86763 195.26472,137.57929 65.211166,27.02918 136.0385158,39.85035 206.628891,39.58228 C 204.67624,446.16546 329.95444,403.3846 429.76552,326.80268 529.5766,250.22076 603.33415,140.28451 636.33471,18.884323 654.84476,-49.209183 660.77183,-120.91723 651.52193,-190.87284 641.01026,-270.37105 611.05756,-346.66487 569.15348,-415.03525 521.43254,-492.89637 458.22567,-560.92542 385.73851,-616.47048 303.50338,-679.48516 209.41473,-726.5177 110.56291,-757.53032 -0.63910062,-792.41755 -117.81871,-807.15323 -234.3355,-804.5371 c -130.06653,2.92036 -259.62339,27.41671 -381.77727,72.18568"
           style="fill:none;stroke:#6d6d6d;stroke-width:1;stroke-linecap:butt;stroke-linejoin:miter;stroke-miterlimit:4;stroke-opacity:1;stroke-dasharray:none" />
        <path
           sodipodi:nodetypes="cssssssssssssc"
           inkscape:connector-curvature="0"
           inkscape:original-d="m 1094.4158,1496.9265 c 29.7081,-58.5865 155.0151,-306.6489 168.4698,-350.327 13.4547,-43.678 63.3867,-301.70742 43.6079,-345.5342 -19.7787,-43.82678 -39.971,-258.79176 -65.0894,-302.29802 C 1216.2858,455.26101 1123.7868,310.60123 1094.525,269.48716 1065.2631,228.37314 939.43582,158.43395 899.26026,131.90787 859.08469,105.38179 743.4002,98.924142 692.63138,92.325592 641.86256,85.727056 138.17845,463.10049 135.16824,520.08449 c -3.01022,56.984 -41.908075,139.55306 -15.18723,209.75716 26.72085,70.20411 25.91656,140.73822 82.36845,224.16242 56.45189,83.42423 88.47588,137.46933 183.41496,201.43523 94.93912,63.9659 208.62271,121.4758 275.1756,141.0598 66.55289,19.584 284.09145,51.7284 344.89838,47.0068 60.807,-4.7215 317.1474,-59.7323 381.7773,-72.1857"
           inkscape:path-effect="#path-effect6558-5"
           id="path4514"
           d="m 1094.4158,1496.9265 c 74.8834,-106.4673 132.0577,-225.3592 168.4698,-350.327 32.6201,-111.9535 48.6069,-229.03243 43.6079,-345.5342 C 1302.0522,697.56077 1280.946,594.52401 1241.4041,498.76728 1206.5659,414.40127 1157.3268,335.72353 1094.525,269.48716 1039.3383,211.28238 973.35586,162.61953 899.26026,131.90787 834.0491,104.87869 763.22175,92.05752 692.63138,92.325592 566.82671,92.803345 441.54851,135.58421 341.73743,212.16613 241.92635,288.74805 168.1688,398.6843 135.16824,520.08449 c -18.51005,68.0935 -24.43713,139.80155 -15.18723,209.75716 10.51167,79.49822 40.46437,155.79203 82.36845,224.16242 47.72094,77.86113 110.9278,145.89013 183.41496,201.43523 82.23512,63.0147 176.32378,110.0472 275.1756,141.0598 111.202,34.8872 228.3816,49.6229 344.89838,47.0068 130.0665,-2.9203 259.6234,-27.4167 381.7773,-72.1857"
           style="fill:none;stroke:#6d6d6d;stroke-width:1;stroke-miterlimit:4;stroke-opacity:1;stroke-dasharray:none" />
        <path
           style="fill:none;stroke:#6d6d6d;stroke-width:1;stroke-linecap:butt;stroke-linejoin:miter;stroke-miterlimit:4;stroke-opacity:1;stroke-dasharray:none"
           d="m -841.69082,-439.17937 c -11.61731,129.64504 -1.68577,261.19552 29.26428,387.626896 27.72687,113.264607 72.42137,222.651354 135.00151,321.045344 55.59855,87.41692 125.39544,166.09629 207.51812,229.25309 72.35379,55.644 154.33499,99.16133 241.84114,125.12281 76.89544,22.81347 158.369355,31.96552 237.8938521,21.51481 C 79.817201,636.18596 147.56607,611.87574 208.56509,576.34839 317.27625,513.0323 404.37992,413.34389 452.52789,297.11647 500.67586,180.88904 509.58365,48.802674 477.46288,-72.83325 459.4463,-141.05898 428.72527,-206.12351 385.73682,-262.08189 336.88434,-325.67353 272.79764,-376.76956 202.32245,-415.02801 122.06434,-458.59725 33.31106,-485.9087 -57.237192,-497.76855 c -102.725048,-13.45475 -207.724488,-7.1418 -308.838988,15.42639 -113.74738,25.38778 -222.59574,71.21611 -322.19417,131.74014 -111.18074,67.56237 -211.13209,153.55526 -294.53597,253.403267"
           id="path4518"
           inkscape:path-effect="#path-effect6543-76"
           inkscape:original-d="m -841.69082,-439.17937 c 3.56527,65.59137 19.07739,343.073261 29.26428,387.626896 10.18688,44.5536347 95.95919,292.979644 135.00151,321.045344 39.04232,28.0657 164.01186,204.13473 207.51812,229.25309 43.50627,25.11835 195.94265,104.1479 241.84114,125.12281 45.89849,20.9749 189.837755,18.63033 237.8938521,21.51481 C 57.884181,648.26805 161.29872,596.01829 208.56509,576.34839 255.83144,556.67848 503.34796,-21.978551 477.46288,-72.83325 451.57781,-123.68794 443.9798,-214.64378 385.73682,-262.08189 327.49384,-309.52 292.92331,-371.00648 202.32245,-415.02801 c -90.60088,-44.02154 -145.357021,-74.81398 -259.559642,-82.74054 -114.202628,-7.92655 -241.410468,-0.8898 -308.838988,15.42639 -67.42851,16.31619 -271.89459,97.24765 -322.19417,131.74014 -50.29958,34.49249 -244.79153,210.30337 -294.53597,253.403267"
           inkscape:connector-curvature="0"
           sodipodi:nodetypes="cssssssssssssc" />
        <path
           style="fill:none;stroke:#6d6d6d;stroke-width:1;stroke-miterlimit:4;stroke-opacity:1;stroke-dasharray:none"
           d="M 1613.1938,978.14824 C 1624.811,848.50317 1614.8795,716.95267 1583.9294,590.52127 1556.2025,477.25667 1511.508,367.86991 1448.9279,269.47593 1393.3294,182.05903 1323.5325,103.37968 1241.4098,40.222872 1169.056,-15.421124 1087.0749,-58.938487 999.56873,-84.899968 922.67329,-107.71345 841.19936,-116.86548 761.67486,-106.41476 691.68575,-97.217133 623.93688,-72.906922 562.93786,-37.379579 454.2267,25.936499 367.12302,125.62491 318.97505,241.85234 c -48.14797,116.22743 -57.05576,248.31379 -24.93499,369.94972 18.01658,68.22573 48.73761,133.29027 91.72606,189.24865 48.85249,63.59164 112.93919,114.68767 183.41438,152.94612 80.2581,43.56924 169.01137,70.88067 259.55962,82.74057 102.72505,13.4548 207.72448,7.1418 308.83898,-15.4264 113.7474,-25.38779 222.5958,-71.21613 322.1942,-131.74016 111.1807,-67.56238 211.1321,-153.55527 294.536,-253.40328"
           id="path4524"
           inkscape:path-effect="#path-effect6528-2"
           inkscape:original-d="M 1613.1938,978.14824 C 1609.6286,912.55686 1594.1164,635.07495 1583.9294,590.52127 1573.7426,545.96764 1487.9703,297.54164 1448.9279,269.47593 1409.8856,241.41022 1284.9161,65.341227 1241.4098,40.222872 1197.9036,15.104517 1045.4672,-63.925025 999.56873,-84.899968 953.6702,-105.87483 809.73096,-103.53028 761.67486,-106.41476 c -48.0561,-2.88447 -151.47064,49.365285 -198.737,69.035181 -47.26636,19.66991 -294.78288,598.326939 -268.8978,649.181639 25.88508,50.8547 33.48308,141.81053 91.72606,189.24865 58.24299,47.43811 92.81351,108.92459 183.41438,152.94612 90.60087,44.02154 145.35701,74.81397 259.55962,82.74057 114.20267,7.9265 241.41048,0.8898 308.83898,-15.4264 67.4285,-16.3162 271.8946,-97.24769 322.1942,-131.74016 50.2996,-34.49248 244.7915,-210.30337 294.536,-253.40328"
           inkscape:connector-curvature="0"
           sodipodi:nodetypes="cssssssssssssc" /> -->
      <!-- </g> -->
      <!-- <g -->
         <!-- style="stroke:#929292;stroke-width:1;stroke-miterlimit:4;stroke-opacity:1;stroke-dasharray:none"
         id="g6721"> -->
        <!-- <path
           sodipodi:nodetypes="cssssssssssssc"
           inkscape:connector-curvature="0"
           inkscape:original-d="m 385.75181,-1147.8437 c 55.02116,35.8833 287.57146,188.05814 321.0626,219.15706 33.49114,31.09891 205.74822,229.59292 210.53267,277.43741 4.78445,47.84449 94.77992,244.1058 94.77992,294.34251 0,50.23671 -7.7766,221.76526 -12.561,272.001973 C 994.7815,-34.66803 920.78144,88.814742 899.25142,131.87478 877.7214,174.93482 780.76451,238.36956 740.0967,269.46848 699.42888,300.56739 74.538925,225.59447 43.440005,177.74998 12.341085,129.9055 -62.629979,77.847517 -74.591099,3.6885606 -86.552219,-70.470397 -122.51581,-131.15259 -115.33914,-231.62601 c 7.17667,-100.47343 7.8877,-163.28986 58.124411,-266.15551 50.23672,-102.86565 119.934654,-209.5125 167.779139,-259.74921 47.84449,-50.23671 220.16624,-186.8438 275.1874,-213.15827 55.02116,-26.31447 304.52382,-106.844 366.72166,-128.374"
           inkscape:path-effect="#path-effect6662-7"
           id="path4318"
           d="m 385.75181,-1147.8437 c 118.08455,54.7616 227.04484,129.1378 321.0626,219.15706 84.2266,80.64447 156.61105,174.04442 210.53267,277.43741 47.90599,91.85821 81.14586,191.64379 94.77992,294.34251 12.0122,90.48221 8.7088,183.23869 -12.561,272.001973 C 980.87533,-6.9046017 948.06426,68.229902 899.25142,131.87478 856.29148,187.88832 801.36379,234.40545 740.0967,269.46848 630.90779,331.95707 501.02325,357.54686 376.29336,341.13051 251.56346,324.71416 132.71942,266.38535 43.440005,177.74998 -6.6369235,128.0343 -47.623942,68.896842 -74.591099,3.6885606 -105.23683,-70.41475 -117.44395,-151.46348 -115.33914,-231.62601 c 2.39699,-91.29018 23.12122,-181.8085 58.124411,-266.15551 39.710369,-95.68988 97.67726,-183.46558 167.779139,-259.74921 78.86015,-85.81423 172.97284,-157.16551 275.1874,-213.15827 114.1011,-62.5042 238.54881,-106.0681 366.72166,-128.374"
           style="fill:none;stroke:#929292;stroke-width:1;stroke-linecap:butt;stroke-linejoin:miter;stroke-miterlimit:4;stroke-opacity:1;stroke-dasharray:none" />
        <path
           sodipodi:nodetypes="cssssssssssssc"
           inkscape:connector-curvature="0"
           inkscape:original-d="M 385.75118,1686.8125 C 330.73002,1650.9292 98.17972,1498.7544 64.688583,1467.6554 31.197441,1436.5565 -141.05964,1238.0625 -145.84409,1190.218 c -4.78445,-47.8445 -94.77993,-244.10577 -94.77993,-294.34248 0,-50.23671 7.77659,-221.76526 12.56103,-272.00197 4.78445,-50.23672 78.78454,-173.71949 100.31456,-216.77953 21.53002,-43.06004 118.486914,-106.49478 159.154729,-137.5937 40.667815,-31.09891 665.557771,43.87401 696.656691,91.7185 31.09892,47.84448 106.06998,99.90246 118.0311,174.06142 11.96112,74.15896 47.92471,134.84115 40.74804,235.31457 -7.17667,100.47343 -7.8877,163.28986 -58.12441,266.15549 -50.23672,102.8657 -119.93465,209.5125 -167.77914,259.7492 -47.84449,50.2367 -220.16624,186.8438 -275.1874,213.1583 -55.02116,26.3145 -304.52382,106.844 -366.721652,128.374"
           inkscape:path-effect="#path-effect6657-0"
           id="path4447"
           d="M 385.75118,1686.8125 C 267.66663,1632.0508 158.70634,1557.6746 64.688583,1467.6554 -19.53801,1387.0109 -91.922465,1293.611 -145.84409,1190.218 c -47.90599,-91.8582 -81.14587,-191.64377 -94.77993,-294.34248 -12.01222,-90.48221 -8.70874,-183.23868 12.56103,-272.00197 18.69067,-78.00014 51.50172,-153.13465 100.31456,-216.77953 42.959934,-56.01354 97.887634,-102.53067 159.154729,-137.5937 109.188911,-62.48858 239.073451,-88.07837 363.803341,-71.66202 124.72989,16.41634 243.57393,74.74515 332.85335,163.38052 50.07693,49.71568 91.06394,108.85314 118.0311,174.06142 30.64573,74.10331 42.85285,155.15204 40.74804,235.31457 -2.39699,91.29017 -23.12122,181.80848 -58.12441,266.15549 -39.71037,95.6899 -97.67727,183.4656 -167.77914,259.7492 -78.86015,85.8142 -172.97283,157.1655 -275.1874,213.1583 -114.1011,62.5042 -238.5488,106.0681 -366.721652,128.374"
           style="fill:none;stroke:#929292;stroke-width:1;stroke-miterlimit:4;stroke-opacity:1;stroke-dasharray:none" />
        <path
           style="fill:none;stroke:#929292;stroke-width:1;stroke-linecap:butt;stroke-linejoin:miter;stroke-miterlimit:4;stroke-opacity:1;stroke-dasharray:none"
           d="m 1094.4158,-957.95757 c 74.8834,106.46723 132.0577,225.35906 168.4699,350.32688 32.6201,111.95346 48.6069,229.03242 43.6079,345.53418 -4.4413,103.50454 -25.5475,206.541318 -65.0894,302.298045 C 1206.566,124.56755 1157.3268,203.24527 1094.525,269.48165 1039.3383,327.68641 973.35589,376.34927 899.26031,407.06094 834.04915,434.09013 763.2218,446.9113 692.63143,446.64322 566.82676,446.16546 441.54856,403.3846 341.73749,326.80268 241.92641,250.22076 168.16885,140.2845 135.16829,18.88432 c -18.51005,-68.093505 -24.43713,-139.80155 -15.18723,-209.75716 10.51167,-79.49822 40.46436,-155.79204 82.36845,-224.16242 47.72094,-77.86112 110.92781,-145.89016 183.41497,-201.43522 82.23513,-63.01468 176.32378,-110.04723 275.1756,-141.05985 111.20201,-34.88723 228.38163,-49.6229 344.89842,-47.00677 130.0665,2.92036 259.6234,27.41671 381.7773,72.18568"
           id="path4471"
           inkscape:path-effect="#path-effect6632-3"
           inkscape:original-d="m 1094.4158,-957.95757 c 29.7081,58.58642 155.0152,306.64885 168.4699,350.32688 13.4547,43.67801 63.3867,301.70741 43.6079,345.53418 -19.7788,43.82676 -39.9711,258.7917782 -65.0894,302.298045 C 1216.2858,83.707802 1123.7868,228.36758 1094.525,269.48165 1065.2632,310.59568 939.43587,380.53486 899.26031,407.06094 859.08474,433.58702 743.40025,440.04467 692.63143,446.64322 641.86261,453.24175 138.1785,75.868324 135.16829,18.88432 c -3.01022,-56.983995 -41.908073,-139.55306 -15.18723,-209.75716 26.72085,-70.2041 25.91656,-140.73822 82.36845,-224.16242 56.45189,-83.4242 88.47588,-137.46931 183.41497,-201.43522 94.9391,-63.96591 208.62271,-121.47582 275.1756,-141.05985 66.5529,-19.58402 284.09146,-51.72836 344.89842,-47.00677 60.807,4.72158 317.1474,59.73229 381.7773,72.18568"
           inkscape:connector-curvature="0"
           sodipodi:nodetypes="cssssssssssssc" />
        <path
           style="fill:none;stroke:#929292;stroke-width:1;stroke-miterlimit:4;stroke-opacity:1;stroke-dasharray:none"
           d="m -322.9128,1496.9264 c -74.88339,-106.4673 -132.05767,-225.3591 -168.46982,-350.3269 -32.62014,-111.9535 -48.60694,-229.03244 -43.60794,-345.53421 4.4413,-103.50453 25.54749,-206.5413 65.08941,-302.29802 34.83822,-84.36601 84.07735,-163.04373 146.87916,-229.2801 55.18667,-58.20477 121.16913,-106.86763 195.26472,-137.5793 C -62.546105,104.87869 8.2812459,92.057516 78.871621,92.325592 204.67629,92.80335 329.95449,135.58421 429.76557,212.16613 c 99.81108,76.58192 173.56863,186.51817 206.56919,307.91836 18.51005,68.0935 24.43712,139.80155 15.18722,209.75716 -10.51168,79.49821 -40.46437,155.79203 -82.36845,224.16241 -47.72094,77.86114 -110.9278,145.89014 -183.41496,201.43524 -82.23512,63.0147 -176.32378,110.0472 -275.17559,141.0598 -111.20201893,34.8872 -228.38164,49.6229 -344.89843,47.0068 -130.06653,-2.9204 -259.62339,-27.4167 -381.77727,-72.1857"
           id="path4473"
           inkscape:path-effect="#path-effect6627-9"
           inkscape:original-d="m -322.9128,1496.9264 c -29.70807,-58.5864 -155.01514,-306.6488 -168.46982,-350.3269 -13.45473,-43.678 -63.38673,-301.70743 -43.60794,-345.53421 19.7788,-43.82677 39.97106,-258.79176 65.08941,-302.29802 25.11836,-43.50627 117.61736,-188.16606 146.87916,-229.2801 29.26182,-41.11405 155.08916,-111.05323 195.26472,-137.5793 C -87.581701,105.38179 28.1028,98.924139 78.871621,92.325592 129.64044,85.727053 633.32455,463.10048 636.33476,520.08449 c 3.01021,56.98399 41.90807,139.55306 15.18722,209.75716 -26.72085,70.2041 -25.91656,140.73821 -82.36845,224.16241 -56.45189,83.42424 -88.47588,137.46934 -183.41496,201.43524 -94.93912,63.9659 -208.6227,121.4758 -275.17559,141.0598 -66.552897,19.584 -284.09146,51.7284 -344.89843,47.0068 -60.80697,-4.7215 -317.14737,-59.7323 -381.77727,-72.1857"
           inkscape:connector-curvature="0"
           sodipodi:nodetypes="cssssssssssssc" />
        <path
           sodipodi:nodetypes="cssssssssssssc"
           inkscape:connector-curvature="0"
           inkscape:original-d="m 1613.1938,-439.17938 c -3.5653,65.59138 -19.0774,343.073262 -29.2643,387.6269 -10.1868,44.5536331 -95.9592,292.97964 -135.0015,321.04534 -39.0423,28.06571 -164.0118,204.13472 -207.5181,229.25308 -43.5063,25.11835 -195.9427,104.14789 -241.84112,125.12284 -45.89853,20.97486 -189.83777,18.63031 -237.89387,21.51479 -48.0561,2.88447 -151.47064,-49.36528 -198.737,-69.03518 -47.26635,-19.66991 -294.78288,-598.326945 -268.8978,-649.181644 25.88508,-50.854696 33.48308,-141.810536 91.72606,-189.248646 58.24298,-47.43811 92.81351,-108.92459 183.41438,-152.94612 90.60088,-44.02154 145.35701,-74.81398 259.55964,-82.74054 114.20262,-7.92655 241.41051,-0.88979 308.83901,15.42639 67.4285,16.31619 271.8946,97.24766 322.1941,131.74014 50.2996,34.49249 244.7916,210.30337 294.536,253.403276"
           inkscape:path-effect="#path-effect6692-9"
           id="path4481"
           d="m 1613.1938,-439.17938 c 11.6173,129.64504 1.6858,261.19552 -29.2643,387.6269 -27.7269,113.264605 -72.4214,222.65135 -135.0015,321.04534 -55.5985,87.41691 -125.3954,166.09627 -207.5181,229.25308 -72.3538,55.644 -154.335,99.16136 -241.84112,125.12284 -76.89544,22.81348 -158.36937,31.96551 -237.89387,21.51479 C 691.6858,636.18594 623.93693,611.87573 562.93791,576.34839 454.22675,513.03231 367.12307,413.3439 318.9751,297.11647 270.82713,180.88904 261.91934,48.802673 294.04011,-72.833254 c 18.01658,-68.225736 48.73761,-133.290266 91.72606,-189.248646 48.85248,-63.59164 112.93919,-114.68768 183.41438,-152.94612 80.25811,-43.56924 169.01139,-70.88068 259.55964,-82.74054 102.72506,-13.45475 207.72451,-7.14181 308.83901,15.42639 113.7474,25.38778 222.5957,71.21612 322.1941,131.74014 111.1807,67.56238 211.1321,153.55527 294.536,253.403276"
           style="fill:none;stroke:#929292;stroke-width:1;stroke-linecap:butt;stroke-linejoin:miter;stroke-miterlimit:4;stroke-opacity:1;stroke-dasharray:none" />
        <path
           sodipodi:nodetypes="cssssssssssssc"
           inkscape:connector-curvature="0"
           inkscape:original-d="m -841.69077,978.14818 c 3.56527,-65.59137 19.07736,-343.07324 29.26432,-387.62692 10.18686,-44.55363 95.95917,-292.97963 135.0015,-321.04534 39.04232,-28.0657 164.01183,-204.13471 207.51809,-229.253065 43.50627,-25.118355 195.94265,-104.147906 241.84113,-125.122814 45.8985,-20.974901 189.837765,-18.630331 237.8938635,-21.514811 48.0560995,-2.88447 151.4706365,49.36529 198.7370065,69.035191 47.26635,19.669905 294.78288,598.326939 268.89779,649.181639 -25.88507,50.85469 -33.48308,141.81053 -91.72606,189.24864 -58.24298,47.43811 -92.8135,108.92459 -183.41437,152.94612 -90.60088,44.02154 -145.35702,74.81398 -259.559623,82.74058 -114.202667,7.9265 -241.410467,0.8897 -308.838977,-15.4264 -67.4285,-16.3162 -271.89459,-97.2477 -322.1942,-131.74017 -50.29961,-34.49247 -244.79153,-210.30337 -294.53597,-253.40327"
           inkscape:path-effect="#path-effect6687-9"
           id="path4483"
           d="m -841.69077,978.14818 c -11.61729,-129.64505 -1.68574,-261.19554 29.26432,-387.62692 27.72687,-113.2646 72.42137,-222.65135 135.0015,-321.04534 55.59854,-87.41691 125.39543,-166.09627 207.51809,-229.253065 72.35378,-55.643996 154.33498,-99.161335 241.84113,-125.122814 C -151.17029,-107.71343 -69.696368,-116.86549 9.8281335,-106.41477 79.817252,-97.217147 147.56612,-72.906928 208.56514,-37.379579 317.27629,25.936506 404.37997,125.62492 452.52794,241.85235 500.67591,358.07977 509.5837,490.16614 477.46293,611.80206 459.44635,680.02779 428.72532,745.09232 385.73687,801.0507 336.88439,864.64234 272.79769,915.73837 202.3225,953.99682 122.0644,997.56606 33.311126,1024.8775 -57.237123,1036.7374 -159.96217,1050.1922 -264.9616,1043.8792 -366.0761,1021.311 -479.82349,995.92321 -588.67186,950.09487 -688.2703,889.57083 -799.45104,822.00846 -899.40239,736.01556 -982.80627,636.16756"
           style="fill:none;stroke:#929292;stroke-width:1;stroke-miterlimit:4;stroke-opacity:1;stroke-dasharray:none" />
        <path
           style="fill:none;stroke:#929292;stroke-width:1;stroke-linecap:butt;stroke-linejoin:miter;stroke-miterlimit:4;stroke-opacity:1;stroke-dasharray:none"
           d="m 1803.0796,269.48471 c -54.7616,118.08456 -129.1378,227.04485 -219.157,321.06259 -80.6445,84.22661 -174.0445,156.61105 -277.4375,210.53267 -91.8582,47.90598 -191.6438,81.14585 -294.3425,94.77992 -90.4822,12.01223 -183.23866,8.70877 -272.00193,-12.561 C 662.14052,864.60822 587.00602,831.79715 523.36114,782.98431 467.3476,740.02437 420.83047,685.09668 385.76744,623.82959 323.27885,514.64068 297.68906,384.75614 314.10541,260.02625 330.52176,135.29636 388.85057,16.45232 477.48594,-72.827096 527.20162,-122.90402 586.33908,-163.89104 651.54736,-190.8582 c 74.10331,-30.64573 155.15204,-42.85285 235.31457,-40.74804 91.29016,2.39699 181.80847,23.12122 266.15547,58.12441 95.6899,39.71037 183.4656,97.677265 259.7492,167.7791387 85.8142,78.8601543 157.1655,172.9728313 213.1583,275.1874013 62.5042,114.1011 106.0681,238.5488 128.374,366.72165"
           id="path4500"
           inkscape:path-effect="#path-effect4320-1"
           inkscape:original-d="m 1803.0796,269.48471 c -35.8833,55.02116 -188.0581,287.57145 -219.157,321.06259 -31.099,33.49114 -229.593,205.74822 -277.4375,210.53267 -47.8444,4.78445 -244.1058,94.77992 -294.3425,94.77992 -50.23667,0 -221.76522,-7.7766 -272.00193,-12.561 C 689.90395,878.51439 566.42118,804.51433 523.36114,782.98431 480.3011,761.45429 416.86636,664.4974 385.76744,623.82959 354.66853,583.16177 429.64145,-41.728176 477.48594,-72.827096 525.33042,-103.92602 577.3884,-178.89708 651.54736,-190.8582 c 74.15896,-11.96112 134.84115,-47.92471 235.31457,-40.74804 100.47343,7.17667 163.28987,7.8877 266.15547,58.12441 102.8657,50.23672 209.5125,119.934654 259.7492,167.7791387 50.2368,47.8444893 186.8438,220.1662413 213.1583,275.1874013 26.3145,55.02116 106.844,304.52381 128.374,366.72165"
           inkscape:connector-curvature="0"
           sodipodi:nodetypes="cssssssssssssc" />
        <path
           style="fill:none;stroke:#929292;stroke-width:1;stroke-miterlimit:4;stroke-opacity:1;stroke-dasharray:none"
           d="m -1031.5766,269.48408 c 54.76167,-118.08455 129.1379,-227.044836 219.15713,-321.062598 80.64448,-84.226592 174.04442,-156.611042 277.4374,-210.532672 91.8582,-47.90599 191.64377,-81.14587 294.34248,-94.77993 90.48221,-12.01222 183.238681,-8.70874 272.001966,12.56103 78.000144,18.69067 153.134644,51.50173 216.779524,100.31456 56.01354,42.95993 102.53067,97.88763 137.5937,159.154728 62.48858,109.188914 88.07837,239.073452 71.66202,363.803332 -16.41635,124.72989 -74.74516,243.57393 -163.38052,332.85335 -49.71568,50.07693 -108.85313,91.06394 -174.06141,118.0311 -74.10331,30.64573 -155.152039,42.85285 -235.31457,40.74804 -91.29017,-2.39699 -181.80848,-23.12122 -266.15549,-58.12441 -95.68987,-39.71037 -183.46557,-97.67727 -259.7492,-167.77914 -85.81423,-78.86015 -157.16552,-172.97283 -213.15829,-275.18739 -62.50417,-114.1011 -106.06813,-238.548803 -128.374,-366.721652"
           id="path4502"
           inkscape:path-effect="#path-effect4457-7"
           inkscape:original-d="m -1031.5766,269.48408 c 35.88334,-55.02116 188.05813,-287.571461 219.15713,-321.062598 31.0989,-33.491142 229.5929,-205.748222 277.4374,-210.532672 47.8445,-4.78445 244.10577,-94.77993 294.34248,-94.77993 50.23671,0 221.765257,7.77659 272.001966,12.56103 50.23672,4.78445 173.719484,78.78454 216.779524,100.31456 43.06004,21.53002 106.49478,118.48691 137.5937,159.154728 31.09891,40.667815 -43.87401,665.557762 -91.7185,696.656682 -47.84448,31.09892 -99.90246,106.06998 -174.06141,118.0311 -74.158964,11.96112 -134.841153,47.92471 -235.31457,40.74804 -100.47343,-7.17667 -163.28986,-7.8877 -266.15549,-58.12441 -102.8657,-50.23672 -209.5125,-119.93465 -259.7492,-167.77914 -50.2367,-47.84449 -186.8438,-220.16623 -213.15829,-275.18739 -26.3145,-55.02116 -106.844,-304.523821 -128.374,-366.721652"
           inkscape:connector-curvature="0"
           sodipodi:nodetypes="cssssssssssssc" />
        <path
           style="fill:none;stroke:#929292;stroke-width:1;stroke-linecap:butt;stroke-linejoin:miter;stroke-miterlimit:4;stroke-opacity:1;stroke-dasharray:none"
           d="m -322.91231,-957.95788 c 129.64504,-11.61731 261.195522,-1.68577 387.6269,29.26428 113.26461,27.72686 222.65136,72.42137 321.04534,135.00151 87.41691,55.59855 166.09627,125.39546 229.25308,207.51813 55.644,72.35378 99.16136,154.33496 125.12284,241.84111 22.81348,76.89544 31.96551,158.36937 21.51479,237.89387 C 752.45301,-36.449867 728.1428,31.298999 692.61546,92.298018 629.29938,201.00918 529.61097,288.11286 413.38354,336.26083 297.15611,384.4088 165.06974,393.31659 43.433816,361.19582 -24.791917,343.17924 -89.856446,312.45821 -145.81483,269.46976 -209.40647,220.61728 -260.5025,156.53058 -298.76095,86.055382 c -43.56924,-80.2581073 -70.88069,-169.01139 -82.74054,-259.559642 -13.45475,-102.72505 -7.1418,-207.72448 15.42639,-308.83898 25.38778,-113.74738 71.21611,-222.59574 131.74014,-322.19417 67.56237,-111.18075 153.555267,-211.13209 253.403276,-294.53599"
           id="path4510"
           inkscape:path-effect="#path-effect6568-2"
           inkscape:original-d="m -322.91231,-957.95788 c 65.59138,3.56526 343.073262,19.07739 387.6269,29.26428 44.55363,10.18687 292.97964,95.95919 321.04534,135.00151 28.06571,39.04231 204.13472,164.01186 229.25308,207.51813 25.11835,43.50626 104.14789,195.94264 125.12284,241.84111 20.97486,45.89853 18.63031,189.83777 21.51479,237.89387 2.88447,48.056097 -49.36528,151.470639 -69.03518,198.736998 C 672.94555,139.56437 94.288515,387.0809 43.433816,361.19582 -7.4208789,335.31074 -98.376716,327.71274 -145.81483,269.46976 -193.25294,211.22678 -254.73942,176.65625 -298.76095,86.055382 c -44.02154,-90.6008779 -74.81398,-145.357017 -82.74054,-259.559642 -7.92655,-114.20262 -0.88979,-241.41047 15.42639,-308.83898 16.31619,-67.42851 97.24766,-271.8946 131.74014,-322.19417 34.49249,-50.29958 210.303367,-244.79149 253.403276,-294.53599"
           inkscape:connector-curvature="0"
           sodipodi:nodetypes="cssssssssssssc" />
        <path
           style="fill:none;stroke:#929292;stroke-width:1;stroke-miterlimit:4;stroke-opacity:1;stroke-dasharray:none"
           d="M 1094.4152,1496.9267 C 964.77017,1508.544 833.2197,1498.6125 706.78833,1467.6624 593.52372,1439.9355 484.13698,1395.241 385.74299,1332.6609 298.32608,1277.0624 219.64672,1207.2655 156.48992,1125.1428 100.84592,1052.789 57.328588,970.80781 31.367111,883.30166 8.5536378,806.40622 -0.59841186,724.9323 9.8523028,645.4078 19.049925,575.41868 43.360143,507.66981 78.887491,446.67079 142.20357,337.95963 241.89199,250.85596 358.11941,202.70799 474.34684,154.56002 606.43321,145.65223 728.06913,177.773 c 68.22573,18.01658 133.29026,48.73761 189.24864,91.72606 63.59164,48.85248 114.68773,112.93917 152.94613,183.41437 43.5692,80.2581 70.8807,169.01138 82.7405,259.55962 13.4547,102.72504 7.1418,207.72446 -15.4264,308.83895 -25.3878,113.7474 -71.2161,222.5958 -131.7401,322.1942 -67.56236,111.1808 -153.55525,211.1321 -253.40327,294.536"
           id="path4512"
           inkscape:path-effect="#path-effect6563-3"
           inkscape:original-d="m 1094.4152,1496.9267 c -65.5913,-3.5653 -343.07319,-19.0774 -387.62687,-29.2643 C 662.2347,1457.4755 413.8087,1371.7032 385.74299,1332.6609 357.67729,1293.6186 181.60828,1168.6491 156.48992,1125.1428 131.37157,1081.6365 52.342019,929.20014 31.367111,883.30166 10.392206,837.40316 12.736779,693.46389 9.8523028,645.4078 6.9678287,597.3517 59.21759,493.93716 78.887491,446.67079 98.557396,399.40444 677.21443,151.88791 728.06913,177.773 c 50.85469,25.88507 141.81053,33.48308 189.24864,91.72606 47.43811,58.24298 108.92463,92.8135 152.94613,183.41437 44.0215,90.60088 74.814,145.35702 82.7405,259.55962 7.9266,114.20267 0.8898,241.41047 -15.4264,308.83895 -16.3162,67.4285 -97.2476,271.8946 -131.7401,322.1942 -34.49247,50.2996 -210.30337,244.7916 -253.40327,294.536"
           inkscape:connector-curvature="0"
           sodipodi:nodetypes="cssssssssssssc" />
        <path
           sodipodi:nodetypes="cssssssssssssc"
           inkscape:connector-curvature="0"
           inkscape:original-d="m -841.69051,-439.17991 c 58.58643,-29.70808 306.64886,-155.01512 350.32688,-168.46984 43.67802,-13.45472 301.70741,-63.38672 345.53418,-43.60793 43.82677,19.77878 258.79179,39.97108 302.29805,65.08943 43.50627,25.11836 188.16605,117.61737 229.28012,146.87913 41.11402,29.26186 111.05321,155.08918 137.57929,195.26474 26.52608,40.17557 32.98373,155.860065 39.58228,206.628881 6.59853,50.76882 -370.7749,554.452929 -427.7589,557.463139 C 78.167393,523.07786 -4.4016745,561.97571 -74.605774,535.25487 -144.80988,508.53402 -215.34399,509.33831 -298.76819,452.88642 -382.1924,396.43453 -436.23751,364.41054 -500.20342,269.47145 -564.16932,174.53235 -621.67924,60.848744 -641.26326,-5.7041504 -660.84728,-72.257049 -692.99162,-289.79561 -688.27004,-350.60256 c 4.72158,-60.80696 59.7323,-317.14737 72.18569,-381.77728"
           inkscape:path-effect="#path-effect6538-6"
           id="path4520"
           d="m -841.69051,-439.17991 c 106.46725,-74.88341 225.35907,-132.05768 350.32688,-168.46984 111.95346,-32.62014 229.03242,-48.60693 345.53418,-43.60793 103.50454,4.4413 206.541316,25.54752 302.29805,65.08943 84.36601,34.83821 163.04374,84.07732 229.28012,146.87913 58.20477,55.18667 106.86763,121.16914 137.57929,195.26474 27.02918,65.21116 39.85035,136.03851 39.58228,206.628881 C 562.43254,88.409167 519.65167,213.68737 443.06975,313.49845 366.48783,413.30953 256.55158,487.06708 135.15139,520.06764 67.057884,538.57769 -4.6501663,544.50477 -74.605774,535.25487 -154.10399,524.7432 -230.39781,494.79051 -298.76819,452.88642 -376.62931,405.16548 -444.65836,341.95861 -500.20342,269.47145 -563.2181,187.23632 -610.25064,93.147672 -641.26326,-5.7041504 -676.15049,-116.90616 -690.88617,-234.08577 -688.27004,-350.60256 c 2.92036,-130.06654 27.41671,-259.6234 72.18569,-381.77728"
           style="fill:none;stroke:#929292;stroke-width:1;stroke-linecap:butt;stroke-linejoin:miter;stroke-miterlimit:4;stroke-opacity:1;stroke-dasharray:none" />
        <path
           sodipodi:nodetypes="cssssssssssssc"
           inkscape:connector-curvature="0"
           inkscape:original-d="m 1613.1934,978.14873 c -58.5864,29.70807 -306.6488,155.01517 -350.3269,168.46977 -43.678,13.4548 -301.70736,63.3868 -345.53414,43.608 C 873.50559,1170.4477 658.5406,1150.2554 615.03433,1125.1371 571.52807,1100.0187 426.86828,1007.5197 385.75423,978.25792 344.64018,948.9961 274.70101,823.16876 248.17493,782.9932 221.64886,742.81763 215.19121,627.13313 208.59266,576.36431 201.99412,525.59549 579.36755,21.911379 636.35156,18.90117 693.33555,15.890955 775.90461,-23.006897 846.10872,3.7139493 916.31282,30.434796 986.84693,29.630508 1070.2711,86.082397 c 83.4242,56.451893 137.4693,88.475883 201.4352,183.414963 63.966,94.93912 121.4759,208.6227 141.0599,275.17559 19.584,66.5529 51.7283,284.09146 47.0068,344.89843 -4.7216,60.80697 -59.7323,317.14732 -72.1857,381.77722"
           inkscape:path-effect="#path-effect6533-5"
           id="path4522"
           d="m 1613.1934,978.14873 c -106.4673,74.88337 -225.3591,132.05757 -350.3269,168.46977 -111.9534,32.6201 -229.0324,48.607 -345.53414,43.608 C 813.82783,1185.7852 710.79105,1164.679 615.03433,1125.1371 530.66832,1090.2989 451.9906,1041.0597 385.75423,978.25792 327.54946,923.07125 278.88659,857.08879 248.17493,782.9932 221.14575,717.78203 208.32458,646.95468 208.59266,576.36431 209.07042,450.55964 251.85128,325.28145 328.4332,225.47037 405.01512,125.65929 514.95137,51.90173 636.35156,18.90117 704.44506,0.39111766 776.15311,-5.5359516 846.10872,3.7139493 925.60692,14.225623 1001.9007,44.178312 1070.2711,86.082397 c 77.8611,47.720943 145.8901,110.927813 201.4352,183.414963 63.0147,82.23513 110.0473,176.32377 141.0599,275.17559 34.8872,111.20201 49.6229,228.38163 47.0068,344.89843 -2.9204,130.06652 -27.4167,259.62332 -72.1857,381.77722"
           style="fill:none;stroke:#929292;stroke-width:1;stroke-miterlimit:4;stroke-opacity:1;stroke-dasharray:none" /> -->
      <!-- </g> -->
    </g>
  </g>
</svg>
